<svg xmlns="http://www.w3.org/2000/svg" xmlns:xlink="http://www.w3.org/1999/xlink" width="500" zoomAndPan="magnify" viewBox="0 0 375 149.999998" height="200" preserveAspectRatio="xMidYMid meet" version="1.0"><defs><g/></defs><g fill="#ff00ff" fill-opacity="1"><g transform="translate(-0.235015, 93.154496)"><g><path d="M 85.21875 -16.796875 C 85.59375 -16.523438 85.804688 -16.171875 85.859375 -15.734375 C 85.921875 -15.296875 85.84375 -14.910156 85.625 -14.578125 C 85.300781 -14.140625 84.863281 -13.921875 84.3125 -13.921875 C 84.09375 -13.921875 83.875 -13.976562 83.65625 -14.09375 C 83.050781 -14.195312 81.234375 -14.316406 78.203125 -14.453125 C 75.171875 -14.597656 71.582031 -14.75 67.4375 -14.90625 C 66.289062 -10.101562 65.15625 -5.285156 64.03125 -0.453125 C 62.914062 4.378906 61.894531 9.035156 60.96875 13.515625 C 59.59375 19.910156 58.535156 25.113281 57.796875 29.125 C 57.066406 33.144531 56.578125 36.257812 56.328125 38.46875 C 56.085938 40.675781 55.96875 42.273438 55.96875 43.265625 C 56.1875 42.878906 56.429688 42.46875 56.703125 42.03125 C 56.921875 41.644531 57.25 41.394531 57.6875 41.28125 C 58.125 41.175781 58.503906 41.234375 58.828125 41.453125 C 59.210938 41.671875 59.457031 41.984375 59.5625 42.390625 C 59.675781 42.804688 59.625 43.207031 59.40625 43.59375 C 58.851562 44.570312 58.234375 45.484375 57.546875 46.328125 C 56.867188 47.179688 56.125 47.609375 55.3125 47.609375 C 55.03125 47.609375 54.753906 47.550781 54.484375 47.4375 C 53.992188 47.21875 53.597656 46.765625 53.296875 46.078125 C 52.992188 45.398438 52.84375 44.269531 52.84375 42.6875 C 52.84375 41.101562 53.046875 38.890625 53.453125 36.046875 C 53.867188 33.210938 54.515625 29.523438 55.390625 24.984375 C 56.265625 20.453125 57.425781 14.910156 58.875 8.359375 C 60.320312 1.804688 62.109375 -5.976562 64.234375 -15 C 61.503906 -15.050781 58.71875 -15.117188 55.875 -15.203125 C 53.039062 -15.285156 50.285156 -15.351562 47.609375 -15.40625 C 46.953125 -15.457031 46.320312 -15.484375 45.71875 -15.484375 C 45.113281 -15.484375 44.515625 -15.484375 43.921875 -15.484375 C 40.421875 -8.878906 37.03125 -2.679688 33.75 3.109375 C 30.476562 8.898438 27.476562 13.65625 24.75 17.375 C 23.050781 19.613281 21.453125 21.085938 19.953125 21.796875 C 18.453125 22.503906 17.113281 22.773438 15.9375 22.609375 C 14.757812 22.453125 13.816406 22.15625 13.109375 21.71875 C 11.304688 20.675781 9.773438 19.007812 8.515625 16.71875 C 7.265625 14.425781 6.253906 11.722656 5.484375 8.609375 C 4.722656 5.492188 4.273438 2.203125 4.140625 -1.265625 C 4.003906 -4.734375 4.191406 -8.160156 4.703125 -11.546875 C 5.222656 -14.941406 6.085938 -18.03125 7.296875 -20.8125 C 9.753906 -26.382812 13.34375 -30.125 18.0625 -32.03125 C 22.789062 -33.945312 28.347656 -33.894531 34.734375 -31.875 C 35.171875 -31.757812 35.484375 -31.507812 35.671875 -31.125 C 35.867188 -30.75 35.882812 -30.34375 35.71875 -29.90625 C 35.613281 -29.519531 35.367188 -29.21875 34.984375 -29 C 34.597656 -28.78125 34.191406 -28.753906 33.765625 -28.921875 C 31.847656 -29.523438 29.796875 -29.9375 27.609375 -30.15625 C 25.421875 -30.375 23.25 -30.222656 21.09375 -29.703125 C 18.9375 -29.179688 16.914062 -28.113281 15.03125 -26.5 C 13.144531 -24.894531 11.519531 -22.5625 10.15625 -19.5 C 8.90625 -16.65625 8.0625 -13.632812 7.625 -10.4375 C 7.1875 -7.25 7.078125 -4.070312 7.296875 -0.90625 C 7.515625 2.257812 7.960938 5.222656 8.640625 7.984375 C 9.328125 10.742188 10.1875 13.09375 11.21875 15.03125 C 12.257812 16.96875 13.410156 18.296875 14.671875 19.015625 C 16.960938 20.316406 19.472656 19.140625 22.203125 15.484375 C 24.773438 11.992188 27.613281 7.515625 30.71875 2.046875 C 33.832031 -3.410156 37.054688 -9.28125 40.390625 -15.5625 C 33.734375 -15.78125 28.394531 -15.957031 24.375 -16.09375 C 20.363281 -16.238281 17.945312 -16.390625 17.125 -16.546875 C 16.6875 -16.660156 16.34375 -16.894531 16.09375 -17.25 C 15.851562 -17.601562 15.785156 -18 15.890625 -18.4375 C 15.953125 -18.875 16.171875 -19.203125 16.546875 -19.421875 C 16.929688 -19.640625 17.316406 -19.722656 17.703125 -19.671875 C 18.242188 -19.554688 19.703125 -19.441406 22.078125 -19.328125 C 24.453125 -19.222656 27.390625 -19.113281 30.890625 -19 C 34.390625 -18.894531 38.101562 -18.789062 42.03125 -18.6875 C 43.832031 -22.226562 45.648438 -25.785156 47.484375 -29.359375 C 49.316406 -32.941406 51.132812 -36.484375 52.9375 -39.984375 C 57.300781 -48.671875 60.957031 -55.835938 63.90625 -61.484375 C 66.851562 -67.140625 69.285156 -71.523438 71.203125 -74.640625 C 73.117188 -77.753906 74.691406 -79.867188 75.921875 -80.984375 C 77.148438 -82.109375 78.226562 -82.507812 79.15625 -82.1875 C 80.132812 -81.800781 80.707031 -80.992188 80.875 -79.765625 C 81.039062 -78.535156 81.039062 -77.019531 80.875 -75.21875 C 80.539062 -71.664062 79.582031 -66.367188 78 -59.328125 C 77.507812 -56.972656 76.8125 -53.960938 75.90625 -50.296875 C 75.007812 -46.640625 74.039062 -42.601562 73 -38.1875 C 72.238281 -35.070312 71.445312 -31.804688 70.625 -28.390625 C 69.8125 -24.972656 68.992188 -21.519531 68.171875 -18.03125 C 72.765625 -17.863281 76.234375 -17.722656 78.578125 -17.609375 C 80.921875 -17.503906 82.554688 -17.382812 83.484375 -17.25 C 84.421875 -17.113281 85 -16.960938 85.21875 -16.796875 Z M 47.6875 -18.59375 C 51.1875 -18.488281 54.351562 -18.394531 57.1875 -18.3125 C 60.03125 -18.226562 62.625 -18.160156 64.96875 -18.109375 C 66.445312 -24.441406 68.085938 -31.378906 69.890625 -38.921875 C 70.984375 -43.347656 71.96875 -47.390625 72.84375 -51.046875 C 73.71875 -54.703125 74.425781 -57.679688 74.96875 -59.984375 C 75.84375 -64.128906 76.5 -67.457031 76.9375 -69.96875 C 77.375 -72.488281 77.644531 -74.414062 77.75 -75.75 C 77.863281 -77.09375 77.894531 -78.035156 77.84375 -78.578125 C 76.914062 -77.648438 75.628906 -75.832031 73.984375 -73.125 C 72.347656 -70.425781 70.503906 -67.164062 68.453125 -63.34375 C 66.410156 -59.519531 64.296875 -55.445312 62.109375 -51.125 C 59.921875 -46.8125 57.789062 -42.632812 55.71875 -38.59375 C 54.082031 -35.3125 52.398438 -31.988281 50.671875 -28.625 C 48.953125 -25.269531 47.25 -21.925781 45.5625 -18.59375 C 45.882812 -18.59375 46.222656 -18.59375 46.578125 -18.59375 C 46.929688 -18.59375 47.300781 -18.59375 47.6875 -18.59375 Z M 47.6875 -18.59375 "/></g></g></g><g fill="#ff00ff" fill-opacity="1"><g transform="translate(73.349973, 93.154496)"><g><path d="M 69.15625 -48.34375 C 69.425781 -48.007812 69.535156 -47.625 69.484375 -47.1875 C 69.429688 -46.757812 69.210938 -46.40625 68.828125 -46.125 C 68.171875 -45.6875 67.539062 -45.71875 66.9375 -46.21875 C 66.226562 -46.488281 64.601562 -46.675781 62.0625 -46.78125 C 59.519531 -46.894531 56.335938 -46.960938 52.515625 -46.984375 C 48.691406 -47.015625 44.484375 -47.003906 39.890625 -46.953125 C 35.304688 -46.898438 30.597656 -46.832031 25.765625 -46.75 C 20.929688 -46.664062 16.25 -46.566406 11.71875 -46.453125 C 10.019531 -39.359375 8.242188 -31.644531 6.390625 -23.3125 C 4.535156 -14.976562 2.707031 -6.523438 0.90625 2.046875 C -1.445312 13.296875 -3.265625 22.523438 -4.546875 29.734375 C -5.828125 36.953125 -6.660156 42.171875 -7.046875 45.390625 C -6.929688 45.390625 -6.820312 45.414062 -6.71875 45.46875 C -6.28125 45.582031 -5.976562 45.84375 -5.8125 46.25 C -5.65625 46.664062 -5.65625 47.0625 -5.8125 47.4375 C -6.144531 48.363281 -6.515625 49.222656 -6.921875 50.015625 C -7.328125 50.816406 -7.890625 51.21875 -8.609375 51.21875 C -8.765625 51.21875 -8.953125 51.1875 -9.171875 51.125 C -9.941406 50.851562 -10.363281 50.265625 -10.4375 49.359375 C -10.519531 48.460938 -10.457031 47.222656 -10.25 45.640625 C -10.03125 43.347656 -9.535156 40.039062 -8.765625 35.71875 C -8.109375 31.675781 -7.257812 26.953125 -6.21875 21.546875 C -5.1875 16.140625 -3.988281 10.210938 -2.625 3.765625 C -0.820312 -4.972656 1.03125 -13.65625 2.9375 -22.28125 C 4.851562 -30.914062 6.6875 -38.945312 8.4375 -46.375 C 5.8125 -46.320312 3.320312 -46.265625 0.96875 -46.203125 C -1.375 -46.148438 -3.5 -46.097656 -5.40625 -46.046875 C -9.0625 -45.941406 -12.253906 -45.859375 -14.984375 -45.796875 C -17.722656 -45.742188 -19.664062 -45.71875 -20.8125 -45.71875 C -21.25 -45.71875 -21.617188 -45.867188 -21.921875 -46.171875 C -22.222656 -46.472656 -22.375 -46.84375 -22.375 -47.28125 C -22.375 -47.71875 -22.222656 -48.082031 -21.921875 -48.375 C -21.617188 -48.675781 -21.25 -48.828125 -20.8125 -48.828125 C -19.664062 -48.828125 -17.738281 -48.867188 -15.03125 -48.953125 C -12.332031 -49.035156 -9.148438 -49.132812 -5.484375 -49.25 C -2.867188 -49.300781 -0.332031 -49.351562 2.125 -49.40625 C 4.582031 -49.457031 6.960938 -49.515625 9.265625 -49.578125 C 10.078125 -53.066406 10.878906 -56.351562 11.671875 -59.4375 C 12.460938 -62.53125 13.210938 -65.359375 13.921875 -67.921875 C 14.035156 -68.359375 14.28125 -68.6875 14.65625 -68.90625 C 15.039062 -69.125 15.425781 -69.179688 15.8125 -69.078125 C 16.25 -68.960938 16.578125 -68.710938 16.796875 -68.328125 C 17.015625 -67.953125 17.070312 -67.546875 16.96875 -67.109375 C 15.65625 -62.242188 14.148438 -56.425781 12.453125 -49.65625 C 20.972656 -49.820312 28.265625 -49.941406 34.328125 -50.015625 C 40.390625 -50.097656 45.46875 -50.140625 49.5625 -50.140625 C 53.664062 -50.140625 56.988281 -50.082031 59.53125 -49.96875 C 62.070312 -49.863281 63.992188 -49.742188 65.296875 -49.609375 C 66.609375 -49.472656 67.535156 -49.296875 68.078125 -49.078125 C 68.628906 -48.859375 68.988281 -48.613281 69.15625 -48.34375 Z M 69.15625 -48.34375 "/></g></g></g><g fill="#ff00ff" fill-opacity="1"><g transform="translate(84.24847, 93.154496)"><g><path d="M 69.15625 -48.34375 C 69.425781 -48.007812 69.535156 -47.625 69.484375 -47.1875 C 69.429688 -46.757812 69.210938 -46.40625 68.828125 -46.125 C 68.171875 -45.6875 67.539062 -45.71875 66.9375 -46.21875 C 66.226562 -46.488281 64.601562 -46.675781 62.0625 -46.78125 C 59.519531 -46.894531 56.335938 -46.960938 52.515625 -46.984375 C 48.691406 -47.015625 44.484375 -47.003906 39.890625 -46.953125 C 35.304688 -46.898438 30.597656 -46.832031 25.765625 -46.75 C 20.929688 -46.664062 16.25 -46.566406 11.71875 -46.453125 C 10.019531 -39.359375 8.242188 -31.644531 6.390625 -23.3125 C 4.535156 -14.976562 2.707031 -6.523438 0.90625 2.046875 C -1.445312 13.296875 -3.265625 22.523438 -4.546875 29.734375 C -5.828125 36.953125 -6.660156 42.171875 -7.046875 45.390625 C -6.929688 45.390625 -6.820312 45.414062 -6.71875 45.46875 C -6.28125 45.582031 -5.976562 45.84375 -5.8125 46.25 C -5.65625 46.664062 -5.65625 47.0625 -5.8125 47.4375 C -6.144531 48.363281 -6.515625 49.222656 -6.921875 50.015625 C -7.328125 50.816406 -7.890625 51.21875 -8.609375 51.21875 C -8.765625 51.21875 -8.953125 51.1875 -9.171875 51.125 C -9.941406 50.851562 -10.363281 50.265625 -10.4375 49.359375 C -10.519531 48.460938 -10.457031 47.222656 -10.25 45.640625 C -10.03125 43.347656 -9.535156 40.039062 -8.765625 35.71875 C -8.109375 31.675781 -7.257812 26.953125 -6.21875 21.546875 C -5.1875 16.140625 -3.988281 10.210938 -2.625 3.765625 C -0.820312 -4.972656 1.03125 -13.65625 2.9375 -22.28125 C 4.851562 -30.914062 6.6875 -38.945312 8.4375 -46.375 C 5.8125 -46.320312 3.320312 -46.265625 0.96875 -46.203125 C -1.375 -46.148438 -3.5 -46.097656 -5.40625 -46.046875 C -9.0625 -45.941406 -12.253906 -45.859375 -14.984375 -45.796875 C -17.722656 -45.742188 -19.664062 -45.71875 -20.8125 -45.71875 C -21.25 -45.71875 -21.617188 -45.867188 -21.921875 -46.171875 C -22.222656 -46.472656 -22.375 -46.84375 -22.375 -47.28125 C -22.375 -47.71875 -22.222656 -48.082031 -21.921875 -48.375 C -21.617188 -48.675781 -21.25 -48.828125 -20.8125 -48.828125 C -19.664062 -48.828125 -17.738281 -48.867188 -15.03125 -48.953125 C -12.332031 -49.035156 -9.148438 -49.132812 -5.484375 -49.25 C -2.867188 -49.300781 -0.332031 -49.351562 2.125 -49.40625 C 4.582031 -49.457031 6.960938 -49.515625 9.265625 -49.578125 C 10.078125 -53.066406 10.878906 -56.351562 11.671875 -59.4375 C 12.460938 -62.53125 13.210938 -65.359375 13.921875 -67.921875 C 14.035156 -68.359375 14.28125 -68.6875 14.65625 -68.90625 C 15.039062 -69.125 15.425781 -69.179688 15.8125 -69.078125 C 16.25 -68.960938 16.578125 -68.710938 16.796875 -68.328125 C 17.015625 -67.953125 17.070312 -67.546875 16.96875 -67.109375 C 15.65625 -62.242188 14.148438 -56.425781 12.453125 -49.65625 C 20.972656 -49.820312 28.265625 -49.941406 34.328125 -50.015625 C 40.390625 -50.097656 45.46875 -50.140625 49.5625 -50.140625 C 53.664062 -50.140625 56.988281 -50.082031 59.53125 -49.96875 C 62.070312 -49.863281 63.992188 -49.742188 65.296875 -49.609375 C 66.609375 -49.472656 67.535156 -49.296875 68.078125 -49.078125 C 68.628906 -48.859375 68.988281 -48.613281 69.15625 -48.34375 Z M 69.15625 -48.34375 "/></g></g></g><g fill="#ff00ff" fill-opacity="1"><g transform="translate(95.146967, 93.154496)"><g><path d="M 34.328125 -18.1875 C 34.710938 -18.019531 34.972656 -17.734375 35.109375 -17.328125 C 35.242188 -16.921875 35.226562 -16.523438 35.0625 -16.140625 C 34.03125 -14.015625 32.898438 -11.882812 31.671875 -9.75 C 30.441406 -7.625 29.15625 -5.671875 27.8125 -3.890625 C 26.476562 -2.117188 25.097656 -0.703125 23.671875 0.359375 C 22.253906 1.429688 20.835938 1.96875 19.421875 1.96875 C 19.148438 1.96875 18.847656 1.941406 18.515625 1.890625 C 14.859375 1.171875 12.59375 -3.742188 11.71875 -12.859375 C 10.789062 -11.609375 9.710938 -10.203125 8.484375 -8.640625 C 7.253906 -7.085938 5.957031 -5.546875 4.59375 -4.015625 C 4.375 -3.796875 4.015625 -3.453125 3.515625 -2.984375 C 3.023438 -2.523438 2.453125 -2.15625 1.796875 -1.875 C 1.140625 -1.601562 0.488281 -1.632812 -0.15625 -1.96875 C -1.46875 -2.457031 -2.097656 -3.878906 -2.046875 -6.234375 C -2.046875 -7.597656 -1.785156 -9.289062 -1.265625 -11.3125 C -0.742188 -13.332031 -0.0078125 -15.363281 0.9375 -17.40625 C 1.894531 -19.457031 3.015625 -21.273438 4.296875 -22.859375 C 5.585938 -24.441406 7.023438 -25.507812 8.609375 -26.0625 C 9.585938 -26.4375 10.785156 -26.5 12.203125 -26.25 C 13.628906 -26.007812 15.109375 -24.988281 16.640625 -23.1875 C 16.910156 -22.863281 17.03125 -22.484375 17 -22.046875 C 16.976562 -21.609375 16.800781 -21.25 16.46875 -20.96875 C 16.144531 -20.695312 15.765625 -20.570312 15.328125 -20.59375 C 14.890625 -20.625 14.53125 -20.804688 14.25 -21.140625 C 12.945312 -22.671875 11.816406 -23.394531 10.859375 -23.3125 C 9.898438 -23.226562 9.09375 -22.941406 8.4375 -22.453125 C 7.238281 -21.578125 6.144531 -20.316406 5.15625 -18.671875 C 4.175781 -17.035156 3.359375 -15.316406 2.703125 -13.515625 C 2.046875 -11.710938 1.582031 -10.03125 1.3125 -8.46875 C 1.039062 -6.914062 0.957031 -5.785156 1.0625 -5.078125 C 1.226562 -5.191406 1.40625 -5.328125 1.59375 -5.484375 C 1.789062 -5.648438 2 -5.867188 2.21875 -6.140625 C 3.851562 -7.941406 5.351562 -9.726562 6.71875 -11.5 C 8.082031 -13.28125 9.257812 -14.851562 10.25 -16.21875 C 10.519531 -16.601562 10.773438 -16.972656 11.015625 -17.328125 C 11.265625 -17.679688 11.5 -17.992188 11.71875 -18.265625 C 12.15625 -18.816406 12.726562 -18.984375 13.4375 -18.765625 C 14.144531 -18.597656 14.523438 -18.132812 14.578125 -17.375 C 14.742188 -13.820312 15.03125 -10.96875 15.4375 -8.8125 C 15.851562 -6.65625 16.304688 -5.039062 16.796875 -3.96875 C 17.285156 -2.90625 17.75 -2.179688 18.1875 -1.796875 C 18.625 -1.421875 18.953125 -1.234375 19.171875 -1.234375 C 20.210938 -1.015625 21.878906 -2.078125 24.171875 -4.421875 C 26.460938 -6.773438 29.140625 -11.117188 32.203125 -17.453125 C 32.421875 -17.890625 32.734375 -18.175781 33.140625 -18.3125 C 33.554688 -18.445312 33.953125 -18.40625 34.328125 -18.1875 Z M 34.328125 -18.1875 "/></g></g></g><g fill="#00ffff" fill-opacity="1"><g transform="translate(-3.308036, 93.154496)"><g><path d="M 85.21875 -16.796875 C 85.59375 -16.523438 85.804688 -16.171875 85.859375 -15.734375 C 85.921875 -15.296875 85.84375 -14.910156 85.625 -14.578125 C 85.300781 -14.140625 84.863281 -13.921875 84.3125 -13.921875 C 84.09375 -13.921875 83.875 -13.976562 83.65625 -14.09375 C 83.050781 -14.195312 81.234375 -14.316406 78.203125 -14.453125 C 75.171875 -14.597656 71.582031 -14.75 67.4375 -14.90625 C 66.289062 -10.101562 65.15625 -5.285156 64.03125 -0.453125 C 62.914062 4.378906 61.894531 9.035156 60.96875 13.515625 C 59.59375 19.910156 58.535156 25.113281 57.796875 29.125 C 57.066406 33.144531 56.578125 36.257812 56.328125 38.46875 C 56.085938 40.675781 55.96875 42.273438 55.96875 43.265625 C 56.1875 42.878906 56.429688 42.46875 56.703125 42.03125 C 56.921875 41.644531 57.25 41.394531 57.6875 41.28125 C 58.125 41.175781 58.503906 41.234375 58.828125 41.453125 C 59.210938 41.671875 59.457031 41.984375 59.5625 42.390625 C 59.675781 42.804688 59.625 43.207031 59.40625 43.59375 C 58.851562 44.570312 58.234375 45.484375 57.546875 46.328125 C 56.867188 47.179688 56.125 47.609375 55.3125 47.609375 C 55.03125 47.609375 54.753906 47.550781 54.484375 47.4375 C 53.992188 47.21875 53.597656 46.765625 53.296875 46.078125 C 52.992188 45.398438 52.84375 44.269531 52.84375 42.6875 C 52.84375 41.101562 53.046875 38.890625 53.453125 36.046875 C 53.867188 33.210938 54.515625 29.523438 55.390625 24.984375 C 56.265625 20.453125 57.425781 14.910156 58.875 8.359375 C 60.320312 1.804688 62.109375 -5.976562 64.234375 -15 C 61.503906 -15.050781 58.71875 -15.117188 55.875 -15.203125 C 53.039062 -15.285156 50.285156 -15.351562 47.609375 -15.40625 C 46.953125 -15.457031 46.320312 -15.484375 45.71875 -15.484375 C 45.113281 -15.484375 44.515625 -15.484375 43.921875 -15.484375 C 40.421875 -8.878906 37.03125 -2.679688 33.75 3.109375 C 30.476562 8.898438 27.476562 13.65625 24.75 17.375 C 23.050781 19.613281 21.453125 21.085938 19.953125 21.796875 C 18.453125 22.503906 17.113281 22.773438 15.9375 22.609375 C 14.757812 22.453125 13.816406 22.15625 13.109375 21.71875 C 11.304688 20.675781 9.773438 19.007812 8.515625 16.71875 C 7.265625 14.425781 6.253906 11.722656 5.484375 8.609375 C 4.722656 5.492188 4.273438 2.203125 4.140625 -1.265625 C 4.003906 -4.734375 4.191406 -8.160156 4.703125 -11.546875 C 5.222656 -14.941406 6.085938 -18.03125 7.296875 -20.8125 C 9.753906 -26.382812 13.34375 -30.125 18.0625 -32.03125 C 22.789062 -33.945312 28.347656 -33.894531 34.734375 -31.875 C 35.171875 -31.757812 35.484375 -31.507812 35.671875 -31.125 C 35.867188 -30.75 35.882812 -30.34375 35.71875 -29.90625 C 35.613281 -29.519531 35.367188 -29.21875 34.984375 -29 C 34.597656 -28.78125 34.191406 -28.753906 33.765625 -28.921875 C 31.847656 -29.523438 29.796875 -29.9375 27.609375 -30.15625 C 25.421875 -30.375 23.25 -30.222656 21.09375 -29.703125 C 18.9375 -29.179688 16.914062 -28.113281 15.03125 -26.5 C 13.144531 -24.894531 11.519531 -22.5625 10.15625 -19.5 C 8.90625 -16.65625 8.0625 -13.632812 7.625 -10.4375 C 7.1875 -7.25 7.078125 -4.070312 7.296875 -0.90625 C 7.515625 2.257812 7.960938 5.222656 8.640625 7.984375 C 9.328125 10.742188 10.1875 13.09375 11.21875 15.03125 C 12.257812 16.96875 13.410156 18.296875 14.671875 19.015625 C 16.960938 20.316406 19.472656 19.140625 22.203125 15.484375 C 24.773438 11.992188 27.613281 7.515625 30.71875 2.046875 C 33.832031 -3.410156 37.054688 -9.28125 40.390625 -15.5625 C 33.734375 -15.78125 28.394531 -15.957031 24.375 -16.09375 C 20.363281 -16.238281 17.945312 -16.390625 17.125 -16.546875 C 16.6875 -16.660156 16.34375 -16.894531 16.09375 -17.25 C 15.851562 -17.601562 15.785156 -18 15.890625 -18.4375 C 15.953125 -18.875 16.171875 -19.203125 16.546875 -19.421875 C 16.929688 -19.640625 17.316406 -19.722656 17.703125 -19.671875 C 18.242188 -19.554688 19.703125 -19.441406 22.078125 -19.328125 C 24.453125 -19.222656 27.390625 -19.113281 30.890625 -19 C 34.390625 -18.894531 38.101562 -18.789062 42.03125 -18.6875 C 43.832031 -22.226562 45.648438 -25.785156 47.484375 -29.359375 C 49.316406 -32.941406 51.132812 -36.484375 52.9375 -39.984375 C 57.300781 -48.671875 60.957031 -55.835938 63.90625 -61.484375 C 66.851562 -67.140625 69.285156 -71.523438 71.203125 -74.640625 C 73.117188 -77.753906 74.691406 -79.867188 75.921875 -80.984375 C 77.148438 -82.109375 78.226562 -82.507812 79.15625 -82.1875 C 80.132812 -81.800781 80.707031 -80.992188 80.875 -79.765625 C 81.039062 -78.535156 81.039062 -77.019531 80.875 -75.21875 C 80.539062 -71.664062 79.582031 -66.367188 78 -59.328125 C 77.507812 -56.972656 76.8125 -53.960938 75.90625 -50.296875 C 75.007812 -46.640625 74.039062 -42.601562 73 -38.1875 C 72.238281 -35.070312 71.445312 -31.804688 70.625 -28.390625 C 69.8125 -24.972656 68.992188 -21.519531 68.171875 -18.03125 C 72.765625 -17.863281 76.234375 -17.722656 78.578125 -17.609375 C 80.921875 -17.503906 82.554688 -17.382812 83.484375 -17.25 C 84.421875 -17.113281 85 -16.960938 85.21875 -16.796875 Z M 47.6875 -18.59375 C 51.1875 -18.488281 54.351562 -18.394531 57.1875 -18.3125 C 60.03125 -18.226562 62.625 -18.160156 64.96875 -18.109375 C 66.445312 -24.441406 68.085938 -31.378906 69.890625 -38.921875 C 70.984375 -43.347656 71.96875 -47.390625 72.84375 -51.046875 C 73.71875 -54.703125 74.425781 -57.679688 74.96875 -59.984375 C 75.84375 -64.128906 76.5 -67.457031 76.9375 -69.96875 C 77.375 -72.488281 77.644531 -74.414062 77.75 -75.75 C 77.863281 -77.09375 77.894531 -78.035156 77.84375 -78.578125 C 76.914062 -77.648438 75.628906 -75.832031 73.984375 -73.125 C 72.347656 -70.425781 70.503906 -67.164062 68.453125 -63.34375 C 66.410156 -59.519531 64.296875 -55.445312 62.109375 -51.125 C 59.921875 -46.8125 57.789062 -42.632812 55.71875 -38.59375 C 54.082031 -35.3125 52.398438 -31.988281 50.671875 -28.625 C 48.953125 -25.269531 47.25 -21.925781 45.5625 -18.59375 C 45.882812 -18.59375 46.222656 -18.59375 46.578125 -18.59375 C 46.929688 -18.59375 47.300781 -18.59375 47.6875 -18.59375 Z M 47.6875 -18.59375 "/></g></g></g><g fill="#00ffff" fill-opacity="1"><g transform="translate(70.276952, 93.154496)"><g><path d="M 69.15625 -48.34375 C 69.425781 -48.007812 69.535156 -47.625 69.484375 -47.1875 C 69.429688 -46.757812 69.210938 -46.40625 68.828125 -46.125 C 68.171875 -45.6875 67.539062 -45.71875 66.9375 -46.21875 C 66.226562 -46.488281 64.601562 -46.675781 62.0625 -46.78125 C 59.519531 -46.894531 56.335938 -46.960938 52.515625 -46.984375 C 48.691406 -47.015625 44.484375 -47.003906 39.890625 -46.953125 C 35.304688 -46.898438 30.597656 -46.832031 25.765625 -46.75 C 20.929688 -46.664062 16.25 -46.566406 11.71875 -46.453125 C 10.019531 -39.359375 8.242188 -31.644531 6.390625 -23.3125 C 4.535156 -14.976562 2.707031 -6.523438 0.90625 2.046875 C -1.445312 13.296875 -3.265625 22.523438 -4.546875 29.734375 C -5.828125 36.953125 -6.660156 42.171875 -7.046875 45.390625 C -6.929688 45.390625 -6.820312 45.414062 -6.71875 45.46875 C -6.28125 45.582031 -5.976562 45.84375 -5.8125 46.25 C -5.65625 46.664062 -5.65625 47.0625 -5.8125 47.4375 C -6.144531 48.363281 -6.515625 49.222656 -6.921875 50.015625 C -7.328125 50.816406 -7.890625 51.21875 -8.609375 51.21875 C -8.765625 51.21875 -8.953125 51.1875 -9.171875 51.125 C -9.941406 50.851562 -10.363281 50.265625 -10.4375 49.359375 C -10.519531 48.460938 -10.457031 47.222656 -10.25 45.640625 C -10.03125 43.347656 -9.535156 40.039062 -8.765625 35.71875 C -8.109375 31.675781 -7.257812 26.953125 -6.21875 21.546875 C -5.1875 16.140625 -3.988281 10.210938 -2.625 3.765625 C -0.820312 -4.972656 1.03125 -13.65625 2.9375 -22.28125 C 4.851562 -30.914062 6.6875 -38.945312 8.4375 -46.375 C 5.8125 -46.320312 3.320312 -46.265625 0.96875 -46.203125 C -1.375 -46.148438 -3.5 -46.097656 -5.40625 -46.046875 C -9.0625 -45.941406 -12.253906 -45.859375 -14.984375 -45.796875 C -17.722656 -45.742188 -19.664062 -45.71875 -20.8125 -45.71875 C -21.25 -45.71875 -21.617188 -45.867188 -21.921875 -46.171875 C -22.222656 -46.472656 -22.375 -46.84375 -22.375 -47.28125 C -22.375 -47.71875 -22.222656 -48.082031 -21.921875 -48.375 C -21.617188 -48.675781 -21.25 -48.828125 -20.8125 -48.828125 C -19.664062 -48.828125 -17.738281 -48.867188 -15.03125 -48.953125 C -12.332031 -49.035156 -9.148438 -49.132812 -5.484375 -49.25 C -2.867188 -49.300781 -0.332031 -49.351562 2.125 -49.40625 C 4.582031 -49.457031 6.960938 -49.515625 9.265625 -49.578125 C 10.078125 -53.066406 10.878906 -56.351562 11.671875 -59.4375 C 12.460938 -62.53125 13.210938 -65.359375 13.921875 -67.921875 C 14.035156 -68.359375 14.28125 -68.6875 14.65625 -68.90625 C 15.039062 -69.125 15.425781 -69.179688 15.8125 -69.078125 C 16.25 -68.960938 16.578125 -68.710938 16.796875 -68.328125 C 17.015625 -67.953125 17.070312 -67.546875 16.96875 -67.109375 C 15.65625 -62.242188 14.148438 -56.425781 12.453125 -49.65625 C 20.972656 -49.820312 28.265625 -49.941406 34.328125 -50.015625 C 40.390625 -50.097656 45.46875 -50.140625 49.5625 -50.140625 C 53.664062 -50.140625 56.988281 -50.082031 59.53125 -49.96875 C 62.070312 -49.863281 63.992188 -49.742188 65.296875 -49.609375 C 66.609375 -49.472656 67.535156 -49.296875 68.078125 -49.078125 C 68.628906 -48.859375 68.988281 -48.613281 69.15625 -48.34375 Z M 69.15625 -48.34375 "/></g></g></g><g fill="#00ffff" fill-opacity="1"><g transform="translate(81.175448, 93.154496)"><g><path d="M 69.15625 -48.34375 C 69.425781 -48.007812 69.535156 -47.625 69.484375 -47.1875 C 69.429688 -46.757812 69.210938 -46.40625 68.828125 -46.125 C 68.171875 -45.6875 67.539062 -45.71875 66.9375 -46.21875 C 66.226562 -46.488281 64.601562 -46.675781 62.0625 -46.78125 C 59.519531 -46.894531 56.335938 -46.960938 52.515625 -46.984375 C 48.691406 -47.015625 44.484375 -47.003906 39.890625 -46.953125 C 35.304688 -46.898438 30.597656 -46.832031 25.765625 -46.75 C 20.929688 -46.664062 16.25 -46.566406 11.71875 -46.453125 C 10.019531 -39.359375 8.242188 -31.644531 6.390625 -23.3125 C 4.535156 -14.976562 2.707031 -6.523438 0.90625 2.046875 C -1.445312 13.296875 -3.265625 22.523438 -4.546875 29.734375 C -5.828125 36.953125 -6.660156 42.171875 -7.046875 45.390625 C -6.929688 45.390625 -6.820312 45.414062 -6.71875 45.46875 C -6.28125 45.582031 -5.976562 45.84375 -5.8125 46.25 C -5.65625 46.664062 -5.65625 47.0625 -5.8125 47.4375 C -6.144531 48.363281 -6.515625 49.222656 -6.921875 50.015625 C -7.328125 50.816406 -7.890625 51.21875 -8.609375 51.21875 C -8.765625 51.21875 -8.953125 51.1875 -9.171875 51.125 C -9.941406 50.851562 -10.363281 50.265625 -10.4375 49.359375 C -10.519531 48.460938 -10.457031 47.222656 -10.25 45.640625 C -10.03125 43.347656 -9.535156 40.039062 -8.765625 35.71875 C -8.109375 31.675781 -7.257812 26.953125 -6.21875 21.546875 C -5.1875 16.140625 -3.988281 10.210938 -2.625 3.765625 C -0.820312 -4.972656 1.03125 -13.65625 2.9375 -22.28125 C 4.851562 -30.914062 6.6875 -38.945312 8.4375 -46.375 C 5.8125 -46.320312 3.320312 -46.265625 0.96875 -46.203125 C -1.375 -46.148438 -3.5 -46.097656 -5.40625 -46.046875 C -9.0625 -45.941406 -12.253906 -45.859375 -14.984375 -45.796875 C -17.722656 -45.742188 -19.664062 -45.71875 -20.8125 -45.71875 C -21.25 -45.71875 -21.617188 -45.867188 -21.921875 -46.171875 C -22.222656 -46.472656 -22.375 -46.84375 -22.375 -47.28125 C -22.375 -47.71875 -22.222656 -48.082031 -21.921875 -48.375 C -21.617188 -48.675781 -21.25 -48.828125 -20.8125 -48.828125 C -19.664062 -48.828125 -17.738281 -48.867188 -15.03125 -48.953125 C -12.332031 -49.035156 -9.148438 -49.132812 -5.484375 -49.25 C -2.867188 -49.300781 -0.332031 -49.351562 2.125 -49.40625 C 4.582031 -49.457031 6.960938 -49.515625 9.265625 -49.578125 C 10.078125 -53.066406 10.878906 -56.351562 11.671875 -59.4375 C 12.460938 -62.53125 13.210938 -65.359375 13.921875 -67.921875 C 14.035156 -68.359375 14.28125 -68.6875 14.65625 -68.90625 C 15.039062 -69.125 15.425781 -69.179688 15.8125 -69.078125 C 16.25 -68.960938 16.578125 -68.710938 16.796875 -68.328125 C 17.015625 -67.953125 17.070312 -67.546875 16.96875 -67.109375 C 15.65625 -62.242188 14.148438 -56.425781 12.453125 -49.65625 C 20.972656 -49.820312 28.265625 -49.941406 34.328125 -50.015625 C 40.390625 -50.097656 45.46875 -50.140625 49.5625 -50.140625 C 53.664062 -50.140625 56.988281 -50.082031 59.53125 -49.96875 C 62.070312 -49.863281 63.992188 -49.742188 65.296875 -49.609375 C 66.609375 -49.472656 67.535156 -49.296875 68.078125 -49.078125 C 68.628906 -48.859375 68.988281 -48.613281 69.15625 -48.34375 Z M 69.15625 -48.34375 "/></g></g></g><g fill="#00ffff" fill-opacity="1"><g transform="translate(92.073945, 93.154496)"><g><path d="M 34.328125 -18.1875 C 34.710938 -18.019531 34.972656 -17.734375 35.109375 -17.328125 C 35.242188 -16.921875 35.226562 -16.523438 35.0625 -16.140625 C 34.03125 -14.015625 32.898438 -11.882812 31.671875 -9.75 C 30.441406 -7.625 29.15625 -5.671875 27.8125 -3.890625 C 26.476562 -2.117188 25.097656 -0.703125 23.671875 0.359375 C 22.253906 1.429688 20.835938 1.96875 19.421875 1.96875 C 19.148438 1.96875 18.847656 1.941406 18.515625 1.890625 C 14.859375 1.171875 12.59375 -3.742188 11.71875 -12.859375 C 10.789062 -11.609375 9.710938 -10.203125 8.484375 -8.640625 C 7.253906 -7.085938 5.957031 -5.546875 4.59375 -4.015625 C 4.375 -3.796875 4.015625 -3.453125 3.515625 -2.984375 C 3.023438 -2.523438 2.453125 -2.15625 1.796875 -1.875 C 1.140625 -1.601562 0.488281 -1.632812 -0.15625 -1.96875 C -1.46875 -2.457031 -2.097656 -3.878906 -2.046875 -6.234375 C -2.046875 -7.597656 -1.785156 -9.289062 -1.265625 -11.3125 C -0.742188 -13.332031 -0.0078125 -15.363281 0.9375 -17.40625 C 1.894531 -19.457031 3.015625 -21.273438 4.296875 -22.859375 C 5.585938 -24.441406 7.023438 -25.507812 8.609375 -26.0625 C 9.585938 -26.4375 10.785156 -26.5 12.203125 -26.25 C 13.628906 -26.007812 15.109375 -24.988281 16.640625 -23.1875 C 16.910156 -22.863281 17.03125 -22.484375 17 -22.046875 C 16.976562 -21.609375 16.800781 -21.25 16.46875 -20.96875 C 16.144531 -20.695312 15.765625 -20.570312 15.328125 -20.59375 C 14.890625 -20.625 14.53125 -20.804688 14.25 -21.140625 C 12.945312 -22.671875 11.816406 -23.394531 10.859375 -23.3125 C 9.898438 -23.226562 9.09375 -22.941406 8.4375 -22.453125 C 7.238281 -21.578125 6.144531 -20.316406 5.15625 -18.671875 C 4.175781 -17.035156 3.359375 -15.316406 2.703125 -13.515625 C 2.046875 -11.710938 1.582031 -10.03125 1.3125 -8.46875 C 1.039062 -6.914062 0.957031 -5.785156 1.0625 -5.078125 C 1.226562 -5.191406 1.40625 -5.328125 1.59375 -5.484375 C 1.789062 -5.648438 2 -5.867188 2.21875 -6.140625 C 3.851562 -7.941406 5.351562 -9.726562 6.71875 -11.5 C 8.082031 -13.28125 9.257812 -14.851562 10.25 -16.21875 C 10.519531 -16.601562 10.773438 -16.972656 11.015625 -17.328125 C 11.265625 -17.679688 11.5 -17.992188 11.71875 -18.265625 C 12.15625 -18.816406 12.726562 -18.984375 13.4375 -18.765625 C 14.144531 -18.597656 14.523438 -18.132812 14.578125 -17.375 C 14.742188 -13.820312 15.03125 -10.96875 15.4375 -8.8125 C 15.851562 -6.65625 16.304688 -5.039062 16.796875 -3.96875 C 17.285156 -2.90625 17.75 -2.179688 18.1875 -1.796875 C 18.625 -1.421875 18.953125 -1.234375 19.171875 -1.234375 C 20.210938 -1.015625 21.878906 -2.078125 24.171875 -4.421875 C 26.460938 -6.773438 29.140625 -11.117188 32.203125 -17.453125 C 32.421875 -17.890625 32.734375 -18.175781 33.140625 -18.3125 C 33.554688 -18.445312 33.953125 -18.40625 34.328125 -18.1875 Z M 34.328125 -18.1875 "/></g></g></g><g fill="#ffffff" fill-opacity="1"><g transform="translate(-1.771526, 93.154496)"><g><path d="M 85.21875 -16.796875 C 85.59375 -16.523438 85.804688 -16.171875 85.859375 -15.734375 C 85.921875 -15.296875 85.84375 -14.910156 85.625 -14.578125 C 85.300781 -14.140625 84.863281 -13.921875 84.3125 -13.921875 C 84.09375 -13.921875 83.875 -13.976562 83.65625 -14.09375 C 83.050781 -14.195312 81.234375 -14.316406 78.203125 -14.453125 C 75.171875 -14.597656 71.582031 -14.75 67.4375 -14.90625 C 66.289062 -10.101562 65.15625 -5.285156 64.03125 -0.453125 C 62.914062 4.378906 61.894531 9.035156 60.96875 13.515625 C 59.59375 19.910156 58.535156 25.113281 57.796875 29.125 C 57.066406 33.144531 56.578125 36.257812 56.328125 38.46875 C 56.085938 40.675781 55.96875 42.273438 55.96875 43.265625 C 56.1875 42.878906 56.429688 42.46875 56.703125 42.03125 C 56.921875 41.644531 57.25 41.394531 57.6875 41.28125 C 58.125 41.175781 58.503906 41.234375 58.828125 41.453125 C 59.210938 41.671875 59.457031 41.984375 59.5625 42.390625 C 59.675781 42.804688 59.625 43.207031 59.40625 43.59375 C 58.851562 44.570312 58.234375 45.484375 57.546875 46.328125 C 56.867188 47.179688 56.125 47.609375 55.3125 47.609375 C 55.03125 47.609375 54.753906 47.550781 54.484375 47.4375 C 53.992188 47.21875 53.597656 46.765625 53.296875 46.078125 C 52.992188 45.398438 52.84375 44.269531 52.84375 42.6875 C 52.84375 41.101562 53.046875 38.890625 53.453125 36.046875 C 53.867188 33.210938 54.515625 29.523438 55.390625 24.984375 C 56.265625 20.453125 57.425781 14.910156 58.875 8.359375 C 60.320312 1.804688 62.109375 -5.976562 64.234375 -15 C 61.503906 -15.050781 58.71875 -15.117188 55.875 -15.203125 C 53.039062 -15.285156 50.285156 -15.351562 47.609375 -15.40625 C 46.953125 -15.457031 46.320312 -15.484375 45.71875 -15.484375 C 45.113281 -15.484375 44.515625 -15.484375 43.921875 -15.484375 C 40.421875 -8.878906 37.03125 -2.679688 33.75 3.109375 C 30.476562 8.898438 27.476562 13.65625 24.75 17.375 C 23.050781 19.613281 21.453125 21.085938 19.953125 21.796875 C 18.453125 22.503906 17.113281 22.773438 15.9375 22.609375 C 14.757812 22.453125 13.816406 22.15625 13.109375 21.71875 C 11.304688 20.675781 9.773438 19.007812 8.515625 16.71875 C 7.265625 14.425781 6.253906 11.722656 5.484375 8.609375 C 4.722656 5.492188 4.273438 2.203125 4.140625 -1.265625 C 4.003906 -4.734375 4.191406 -8.160156 4.703125 -11.546875 C 5.222656 -14.941406 6.085938 -18.03125 7.296875 -20.8125 C 9.753906 -26.382812 13.34375 -30.125 18.0625 -32.03125 C 22.789062 -33.945312 28.347656 -33.894531 34.734375 -31.875 C 35.171875 -31.757812 35.484375 -31.507812 35.671875 -31.125 C 35.867188 -30.75 35.882812 -30.34375 35.71875 -29.90625 C 35.613281 -29.519531 35.367188 -29.21875 34.984375 -29 C 34.597656 -28.78125 34.191406 -28.753906 33.765625 -28.921875 C 31.847656 -29.523438 29.796875 -29.9375 27.609375 -30.15625 C 25.421875 -30.375 23.25 -30.222656 21.09375 -29.703125 C 18.9375 -29.179688 16.914062 -28.113281 15.03125 -26.5 C 13.144531 -24.894531 11.519531 -22.5625 10.15625 -19.5 C 8.90625 -16.65625 8.0625 -13.632812 7.625 -10.4375 C 7.1875 -7.25 7.078125 -4.070312 7.296875 -0.90625 C 7.515625 2.257812 7.960938 5.222656 8.640625 7.984375 C 9.328125 10.742188 10.1875 13.09375 11.21875 15.03125 C 12.257812 16.96875 13.410156 18.296875 14.671875 19.015625 C 16.960938 20.316406 19.472656 19.140625 22.203125 15.484375 C 24.773438 11.992188 27.613281 7.515625 30.71875 2.046875 C 33.832031 -3.410156 37.054688 -9.28125 40.390625 -15.5625 C 33.734375 -15.78125 28.394531 -15.957031 24.375 -16.09375 C 20.363281 -16.238281 17.945312 -16.390625 17.125 -16.546875 C 16.6875 -16.660156 16.34375 -16.894531 16.09375 -17.25 C 15.851562 -17.601562 15.785156 -18 15.890625 -18.4375 C 15.953125 -18.875 16.171875 -19.203125 16.546875 -19.421875 C 16.929688 -19.640625 17.316406 -19.722656 17.703125 -19.671875 C 18.242188 -19.554688 19.703125 -19.441406 22.078125 -19.328125 C 24.453125 -19.222656 27.390625 -19.113281 30.890625 -19 C 34.390625 -18.894531 38.101562 -18.789062 42.03125 -18.6875 C 43.832031 -22.226562 45.648438 -25.785156 47.484375 -29.359375 C 49.316406 -32.941406 51.132812 -36.484375 52.9375 -39.984375 C 57.300781 -48.671875 60.957031 -55.835938 63.90625 -61.484375 C 66.851562 -67.140625 69.285156 -71.523438 71.203125 -74.640625 C 73.117188 -77.753906 74.691406 -79.867188 75.921875 -80.984375 C 77.148438 -82.109375 78.226562 -82.507812 79.15625 -82.1875 C 80.132812 -81.800781 80.707031 -80.992188 80.875 -79.765625 C 81.039062 -78.535156 81.039062 -77.019531 80.875 -75.21875 C 80.539062 -71.664062 79.582031 -66.367188 78 -59.328125 C 77.507812 -56.972656 76.8125 -53.960938 75.90625 -50.296875 C 75.007812 -46.640625 74.039062 -42.601562 73 -38.1875 C 72.238281 -35.070312 71.445312 -31.804688 70.625 -28.390625 C 69.8125 -24.972656 68.992188 -21.519531 68.171875 -18.03125 C 72.765625 -17.863281 76.234375 -17.722656 78.578125 -17.609375 C 80.921875 -17.503906 82.554688 -17.382812 83.484375 -17.25 C 84.421875 -17.113281 85 -16.960938 85.21875 -16.796875 Z M 47.6875 -18.59375 C 51.1875 -18.488281 54.351562 -18.394531 57.1875 -18.3125 C 60.03125 -18.226562 62.625 -18.160156 64.96875 -18.109375 C 66.445312 -24.441406 68.085938 -31.378906 69.890625 -38.921875 C 70.984375 -43.347656 71.96875 -47.390625 72.84375 -51.046875 C 73.71875 -54.703125 74.425781 -57.679688 74.96875 -59.984375 C 75.84375 -64.128906 76.5 -67.457031 76.9375 -69.96875 C 77.375 -72.488281 77.644531 -74.414062 77.75 -75.75 C 77.863281 -77.09375 77.894531 -78.035156 77.84375 -78.578125 C 76.914062 -77.648438 75.628906 -75.832031 73.984375 -73.125 C 72.347656 -70.425781 70.503906 -67.164062 68.453125 -63.34375 C 66.410156 -59.519531 64.296875 -55.445312 62.109375 -51.125 C 59.921875 -46.8125 57.789062 -42.632812 55.71875 -38.59375 C 54.082031 -35.3125 52.398438 -31.988281 50.671875 -28.625 C 48.953125 -25.269531 47.25 -21.925781 45.5625 -18.59375 C 45.882812 -18.59375 46.222656 -18.59375 46.578125 -18.59375 C 46.929688 -18.59375 47.300781 -18.59375 47.6875 -18.59375 Z M 47.6875 -18.59375 "/></g></g></g><g fill="#ffffff" fill-opacity="1"><g transform="translate(71.813462, 93.154496)"><g><path d="M 69.15625 -48.34375 C 69.425781 -48.007812 69.535156 -47.625 69.484375 -47.1875 C 69.429688 -46.757812 69.210938 -46.40625 68.828125 -46.125 C 68.171875 -45.6875 67.539062 -45.71875 66.9375 -46.21875 C 66.226562 -46.488281 64.601562 -46.675781 62.0625 -46.78125 C 59.519531 -46.894531 56.335938 -46.960938 52.515625 -46.984375 C 48.691406 -47.015625 44.484375 -47.003906 39.890625 -46.953125 C 35.304688 -46.898438 30.597656 -46.832031 25.765625 -46.75 C 20.929688 -46.664062 16.25 -46.566406 11.71875 -46.453125 C 10.019531 -39.359375 8.242188 -31.644531 6.390625 -23.3125 C 4.535156 -14.976562 2.707031 -6.523438 0.90625 2.046875 C -1.445312 13.296875 -3.265625 22.523438 -4.546875 29.734375 C -5.828125 36.953125 -6.660156 42.171875 -7.046875 45.390625 C -6.929688 45.390625 -6.820312 45.414062 -6.71875 45.46875 C -6.28125 45.582031 -5.976562 45.84375 -5.8125 46.25 C -5.65625 46.664062 -5.65625 47.0625 -5.8125 47.4375 C -6.144531 48.363281 -6.515625 49.222656 -6.921875 50.015625 C -7.328125 50.816406 -7.890625 51.21875 -8.609375 51.21875 C -8.765625 51.21875 -8.953125 51.1875 -9.171875 51.125 C -9.941406 50.851562 -10.363281 50.265625 -10.4375 49.359375 C -10.519531 48.460938 -10.457031 47.222656 -10.25 45.640625 C -10.03125 43.347656 -9.535156 40.039062 -8.765625 35.71875 C -8.109375 31.675781 -7.257812 26.953125 -6.21875 21.546875 C -5.1875 16.140625 -3.988281 10.210938 -2.625 3.765625 C -0.820312 -4.972656 1.03125 -13.65625 2.9375 -22.28125 C 4.851562 -30.914062 6.6875 -38.945312 8.4375 -46.375 C 5.8125 -46.320312 3.320312 -46.265625 0.96875 -46.203125 C -1.375 -46.148438 -3.5 -46.097656 -5.40625 -46.046875 C -9.0625 -45.941406 -12.253906 -45.859375 -14.984375 -45.796875 C -17.722656 -45.742188 -19.664062 -45.71875 -20.8125 -45.71875 C -21.25 -45.71875 -21.617188 -45.867188 -21.921875 -46.171875 C -22.222656 -46.472656 -22.375 -46.84375 -22.375 -47.28125 C -22.375 -47.71875 -22.222656 -48.082031 -21.921875 -48.375 C -21.617188 -48.675781 -21.25 -48.828125 -20.8125 -48.828125 C -19.664062 -48.828125 -17.738281 -48.867188 -15.03125 -48.953125 C -12.332031 -49.035156 -9.148438 -49.132812 -5.484375 -49.25 C -2.867188 -49.300781 -0.332031 -49.351562 2.125 -49.40625 C 4.582031 -49.457031 6.960938 -49.515625 9.265625 -49.578125 C 10.078125 -53.066406 10.878906 -56.351562 11.671875 -59.4375 C 12.460938 -62.53125 13.210938 -65.359375 13.921875 -67.921875 C 14.035156 -68.359375 14.28125 -68.6875 14.65625 -68.90625 C 15.039062 -69.125 15.425781 -69.179688 15.8125 -69.078125 C 16.25 -68.960938 16.578125 -68.710938 16.796875 -68.328125 C 17.015625 -67.953125 17.070312 -67.546875 16.96875 -67.109375 C 15.65625 -62.242188 14.148438 -56.425781 12.453125 -49.65625 C 20.972656 -49.820312 28.265625 -49.941406 34.328125 -50.015625 C 40.390625 -50.097656 45.46875 -50.140625 49.5625 -50.140625 C 53.664062 -50.140625 56.988281 -50.082031 59.53125 -49.96875 C 62.070312 -49.863281 63.992188 -49.742188 65.296875 -49.609375 C 66.609375 -49.472656 67.535156 -49.296875 68.078125 -49.078125 C 68.628906 -48.859375 68.988281 -48.613281 69.15625 -48.34375 Z M 69.15625 -48.34375 "/></g></g></g><g fill="#ffffff" fill-opacity="1"><g transform="translate(82.711959, 93.154496)"><g><path d="M 69.15625 -48.34375 C 69.425781 -48.007812 69.535156 -47.625 69.484375 -47.1875 C 69.429688 -46.757812 69.210938 -46.40625 68.828125 -46.125 C 68.171875 -45.6875 67.539062 -45.71875 66.9375 -46.21875 C 66.226562 -46.488281 64.601562 -46.675781 62.0625 -46.78125 C 59.519531 -46.894531 56.335938 -46.960938 52.515625 -46.984375 C 48.691406 -47.015625 44.484375 -47.003906 39.890625 -46.953125 C 35.304688 -46.898438 30.597656 -46.832031 25.765625 -46.75 C 20.929688 -46.664062 16.25 -46.566406 11.71875 -46.453125 C 10.019531 -39.359375 8.242188 -31.644531 6.390625 -23.3125 C 4.535156 -14.976562 2.707031 -6.523438 0.90625 2.046875 C -1.445312 13.296875 -3.265625 22.523438 -4.546875 29.734375 C -5.828125 36.953125 -6.660156 42.171875 -7.046875 45.390625 C -6.929688 45.390625 -6.820312 45.414062 -6.71875 45.46875 C -6.28125 45.582031 -5.976562 45.84375 -5.8125 46.25 C -5.65625 46.664062 -5.65625 47.0625 -5.8125 47.4375 C -6.144531 48.363281 -6.515625 49.222656 -6.921875 50.015625 C -7.328125 50.816406 -7.890625 51.21875 -8.609375 51.21875 C -8.765625 51.21875 -8.953125 51.1875 -9.171875 51.125 C -9.941406 50.851562 -10.363281 50.265625 -10.4375 49.359375 C -10.519531 48.460938 -10.457031 47.222656 -10.25 45.640625 C -10.03125 43.347656 -9.535156 40.039062 -8.765625 35.71875 C -8.109375 31.675781 -7.257812 26.953125 -6.21875 21.546875 C -5.1875 16.140625 -3.988281 10.210938 -2.625 3.765625 C -0.820312 -4.972656 1.03125 -13.65625 2.9375 -22.28125 C 4.851562 -30.914062 6.6875 -38.945312 8.4375 -46.375 C 5.8125 -46.320312 3.320312 -46.265625 0.96875 -46.203125 C -1.375 -46.148438 -3.5 -46.097656 -5.40625 -46.046875 C -9.0625 -45.941406 -12.253906 -45.859375 -14.984375 -45.796875 C -17.722656 -45.742188 -19.664062 -45.71875 -20.8125 -45.71875 C -21.25 -45.71875 -21.617188 -45.867188 -21.921875 -46.171875 C -22.222656 -46.472656 -22.375 -46.84375 -22.375 -47.28125 C -22.375 -47.71875 -22.222656 -48.082031 -21.921875 -48.375 C -21.617188 -48.675781 -21.25 -48.828125 -20.8125 -48.828125 C -19.664062 -48.828125 -17.738281 -48.867188 -15.03125 -48.953125 C -12.332031 -49.035156 -9.148438 -49.132812 -5.484375 -49.25 C -2.867188 -49.300781 -0.332031 -49.351562 2.125 -49.40625 C 4.582031 -49.457031 6.960938 -49.515625 9.265625 -49.578125 C 10.078125 -53.066406 10.878906 -56.351562 11.671875 -59.4375 C 12.460938 -62.53125 13.210938 -65.359375 13.921875 -67.921875 C 14.035156 -68.359375 14.28125 -68.6875 14.65625 -68.90625 C 15.039062 -69.125 15.425781 -69.179688 15.8125 -69.078125 C 16.25 -68.960938 16.578125 -68.710938 16.796875 -68.328125 C 17.015625 -67.953125 17.070312 -67.546875 16.96875 -67.109375 C 15.65625 -62.242188 14.148438 -56.425781 12.453125 -49.65625 C 20.972656 -49.820312 28.265625 -49.941406 34.328125 -50.015625 C 40.390625 -50.097656 45.46875 -50.140625 49.5625 -50.140625 C 53.664062 -50.140625 56.988281 -50.082031 59.53125 -49.96875 C 62.070312 -49.863281 63.992188 -49.742188 65.296875 -49.609375 C 66.609375 -49.472656 67.535156 -49.296875 68.078125 -49.078125 C 68.628906 -48.859375 68.988281 -48.613281 69.15625 -48.34375 Z M 69.15625 -48.34375 "/></g></g></g><g fill="#ffffff" fill-opacity="1"><g transform="translate(93.610456, 93.154496)"><g><path d="M 34.328125 -18.1875 C 34.710938 -18.019531 34.972656 -17.734375 35.109375 -17.328125 C 35.242188 -16.921875 35.226562 -16.523438 35.0625 -16.140625 C 34.03125 -14.015625 32.898438 -11.882812 31.671875 -9.75 C 30.441406 -7.625 29.15625 -5.671875 27.8125 -3.890625 C 26.476562 -2.117188 25.097656 -0.703125 23.671875 0.359375 C 22.253906 1.429688 20.835938 1.96875 19.421875 1.96875 C 19.148438 1.96875 18.847656 1.941406 18.515625 1.890625 C 14.859375 1.171875 12.59375 -3.742188 11.71875 -12.859375 C 10.789062 -11.609375 9.710938 -10.203125 8.484375 -8.640625 C 7.253906 -7.085938 5.957031 -5.546875 4.59375 -4.015625 C 4.375 -3.796875 4.015625 -3.453125 3.515625 -2.984375 C 3.023438 -2.523438 2.453125 -2.15625 1.796875 -1.875 C 1.140625 -1.601562 0.488281 -1.632812 -0.15625 -1.96875 C -1.46875 -2.457031 -2.097656 -3.878906 -2.046875 -6.234375 C -2.046875 -7.597656 -1.785156 -9.289062 -1.265625 -11.3125 C -0.742188 -13.332031 -0.0078125 -15.363281 0.9375 -17.40625 C 1.894531 -19.457031 3.015625 -21.273438 4.296875 -22.859375 C 5.585938 -24.441406 7.023438 -25.507812 8.609375 -26.0625 C 9.585938 -26.4375 10.785156 -26.5 12.203125 -26.25 C 13.628906 -26.007812 15.109375 -24.988281 16.640625 -23.1875 C 16.910156 -22.863281 17.03125 -22.484375 17 -22.046875 C 16.976562 -21.609375 16.800781 -21.25 16.46875 -20.96875 C 16.144531 -20.695312 15.765625 -20.570312 15.328125 -20.59375 C 14.890625 -20.625 14.53125 -20.804688 14.25 -21.140625 C 12.945312 -22.671875 11.816406 -23.394531 10.859375 -23.3125 C 9.898438 -23.226562 9.09375 -22.941406 8.4375 -22.453125 C 7.238281 -21.578125 6.144531 -20.316406 5.15625 -18.671875 C 4.175781 -17.035156 3.359375 -15.316406 2.703125 -13.515625 C 2.046875 -11.710938 1.582031 -10.03125 1.3125 -8.46875 C 1.039062 -6.914062 0.957031 -5.785156 1.0625 -5.078125 C 1.226562 -5.191406 1.40625 -5.328125 1.59375 -5.484375 C 1.789062 -5.648438 2 -5.867188 2.21875 -6.140625 C 3.851562 -7.941406 5.351562 -9.726562 6.71875 -11.5 C 8.082031 -13.28125 9.257812 -14.851562 10.25 -16.21875 C 10.519531 -16.601562 10.773438 -16.972656 11.015625 -17.328125 C 11.265625 -17.679688 11.5 -17.992188 11.71875 -18.265625 C 12.15625 -18.816406 12.726562 -18.984375 13.4375 -18.765625 C 14.144531 -18.597656 14.523438 -18.132812 14.578125 -17.375 C 14.742188 -13.820312 15.03125 -10.96875 15.4375 -8.8125 C 15.851562 -6.65625 16.304688 -5.039062 16.796875 -3.96875 C 17.285156 -2.90625 17.75 -2.179688 18.1875 -1.796875 C 18.625 -1.421875 18.953125 -1.234375 19.171875 -1.234375 C 20.210938 -1.015625 21.878906 -2.078125 24.171875 -4.421875 C 26.460938 -6.773438 29.140625 -11.117188 32.203125 -17.453125 C 32.421875 -17.890625 32.734375 -18.175781 33.140625 -18.3125 C 33.554688 -18.445312 33.953125 -18.40625 34.328125 -18.1875 Z M 34.328125 -18.1875 "/></g></g></g><g fill="#ff00ff" fill-opacity="1"><g transform="translate(125.633547, 93.154496)"><g/></g></g><g fill="#ff00ff" fill-opacity="1"><g transform="translate(150.790219, 93.154496)"><g/></g></g><g fill="#00ffff" fill-opacity="1"><g transform="translate(122.560525, 93.154496)"><g/></g></g><g fill="#00ffff" fill-opacity="1"><g transform="translate(147.717197, 93.154496)"><g/></g></g><g fill="#ffffff" fill-opacity="1"><g transform="translate(124.097036, 93.154496)"><g/></g></g><g fill="#ffffff" fill-opacity="1"><g transform="translate(149.253708, 93.154496)"><g/></g></g><g fill="#ff00ff" fill-opacity="1"><g transform="translate(175.952034, 93.154496)"><g><path d="M 80.375 -83.984375 C 78.03125 -74.585938 75.300781 -66.351562 72.1875 -59.28125 C 69.070312 -52.207031 65.789062 -46.128906 62.34375 -41.046875 C 58.90625 -35.972656 55.453125 -31.710938 51.984375 -28.265625 C 48.515625 -24.828125 45.207031 -22.054688 42.0625 -19.953125 C 38.925781 -17.847656 36.101562 -16.25 33.59375 -15.15625 C 30.15625 -13.625 26.820312 -12.503906 23.59375 -11.796875 C 25.726562 -9.285156 27.832031 -6.363281 29.90625 -3.03125 C 31.976562 0.300781 34.082031 3.769531 36.21875 7.375 C 38.070312 10.488281 39.941406 13.570312 41.828125 16.625 C 43.710938 19.6875 45.625 22.5 47.5625 25.0625 C 49.5 27.632812 51.460938 29.765625 53.453125 31.453125 C 55.453125 33.148438 57.460938 34.21875 59.484375 34.65625 C 62.160156 35.257812 64.863281 34.632812 67.59375 32.78125 C 67.976562 32.5 68.375 32.398438 68.78125 32.484375 C 69.195312 32.566406 69.539062 32.773438 69.8125 33.109375 C 70.03125 33.484375 70.109375 33.890625 70.046875 34.328125 C 69.992188 34.765625 69.78125 35.09375 69.40625 35.3125 C 66.78125 37.113281 64.128906 38.015625 61.453125 38.015625 C 60.578125 38.015625 59.703125 37.929688 58.828125 37.765625 C 56.421875 37.222656 54.113281 36.050781 51.90625 34.25 C 49.695312 32.445312 47.550781 30.191406 45.46875 27.484375 C 43.394531 24.785156 41.359375 21.835938 39.359375 18.640625 C 37.367188 15.441406 35.394531 12.207031 33.4375 8.9375 C 31.351562 5.382812 29.234375 1.875 27.078125 -1.59375 C 24.921875 -5.0625 22.75 -8.050781 20.5625 -10.5625 C 19.363281 -5.539062 18.21875 -0.628906 17.125 4.171875 C 16.03125 8.984375 15.03125 13.53125 14.125 17.8125 C 13.226562 22.101562 12.460938 25.941406 11.828125 29.328125 C 11.203125 32.710938 10.753906 35.445312 10.484375 37.53125 C 10.703125 37.039062 10.945312 36.492188 11.21875 35.890625 C 11.382812 35.503906 11.671875 35.226562 12.078125 35.0625 C 12.492188 34.90625 12.894531 34.90625 13.28125 35.0625 C 13.707031 35.226562 13.988281 35.515625 14.125 35.921875 C 14.269531 36.335938 14.257812 36.765625 14.09375 37.203125 C 13.113281 39.492188 12.265625 41.1875 11.546875 42.28125 C 10.835938 43.375 10.078125 43.921875 9.265625 43.921875 C 9.046875 43.921875 8.828125 43.894531 8.609375 43.84375 C 8.054688 43.625 7.65625 43.195312 7.40625 42.5625 C 7.164062 41.9375 7.097656 40.859375 7.203125 39.328125 C 7.316406 37.796875 7.59375 35.554688 8.03125 32.609375 C 8.957031 27.253906 10.488281 19.660156 12.625 9.828125 C 13.332031 6.609375 14.09375 3.238281 14.90625 -0.28125 C 15.726562 -3.8125 16.550781 -7.40625 17.375 -11.0625 C 16.445312 -11.0625 15.570312 -11.085938 14.75 -11.140625 C 12.5625 -11.304688 10.617188 -11.742188 8.921875 -12.453125 C 7.234375 -13.160156 5.953125 -14.0625 5.078125 -15.15625 C 3.828125 -16.738281 3.691406 -18.1875 4.671875 -19.5 C 5.429688 -20.476562 6.6875 -20.941406 8.4375 -20.890625 C 10.1875 -20.835938 12.289062 -20.289062 14.75 -19.25 C 16.0625 -18.65625 17.398438 -17.835938 18.765625 -16.796875 C 20.078125 -22.316406 21.382812 -27.832031 22.6875 -33.34375 C 24 -38.863281 25.257812 -44.082031 26.46875 -49 C 27.613281 -53.914062 28.691406 -58.4375 29.703125 -62.5625 C 30.710938 -66.6875 31.570312 -70.25 32.28125 -73.25 C 32.332031 -73.6875 32.550781 -74.015625 32.9375 -74.234375 C 33.320312 -74.453125 33.734375 -74.535156 34.171875 -74.484375 C 34.546875 -74.367188 34.859375 -74.117188 35.109375 -73.734375 C 35.359375 -73.359375 35.425781 -72.953125 35.3125 -72.515625 C 34.601562 -69.515625 33.753906 -65.953125 32.765625 -61.828125 C 31.785156 -57.703125 30.695312 -53.179688 29.5 -48.265625 C 28.351562 -43.566406 27.082031 -38.304688 25.6875 -32.484375 C 24.289062 -26.671875 22.882812 -20.734375 21.46875 -14.671875 C 23.320312 -14.992188 25.175781 -15.457031 27.03125 -16.0625 C 28.894531 -16.664062 30.671875 -17.320312 32.359375 -18.03125 C 34.710938 -19.125 37.40625 -20.679688 40.4375 -22.703125 C 43.46875 -24.722656 46.648438 -27.382812 49.984375 -30.6875 C 53.316406 -33.988281 56.632812 -38.109375 59.9375 -43.046875 C 63.238281 -47.992188 66.390625 -53.894531 69.390625 -60.75 C 72.398438 -67.613281 75.050781 -75.601562 77.34375 -84.71875 C 77.457031 -85.15625 77.703125 -85.484375 78.078125 -85.703125 C 78.460938 -85.921875 78.875 -85.976562 79.3125 -85.875 C 79.695312 -85.757812 80 -85.507812 80.21875 -85.125 C 80.4375 -84.75 80.488281 -84.367188 80.375 -83.984375 Z M 8.765625 -16.0625 C 9.859375 -15.351562 11.097656 -14.847656 12.484375 -14.546875 C 13.878906 -14.242188 15.34375 -14.117188 16.875 -14.171875 C 15.726562 -15.160156 14.582031 -15.898438 13.4375 -16.390625 C 11.46875 -17.203125 10.003906 -17.632812 9.046875 -17.6875 C 8.097656 -17.75 7.515625 -17.722656 7.296875 -17.609375 C 7.296875 -17.503906 7.40625 -17.300781 7.625 -17 C 7.84375 -16.695312 8.222656 -16.382812 8.765625 -16.0625 Z M 8.765625 -16.0625 "/></g></g></g><g fill="#ff00ff" fill-opacity="1"><g transform="translate(242.162411, 93.154496)"><g><path d="M 34.328125 -18.1875 C 34.710938 -18.019531 34.972656 -17.734375 35.109375 -17.328125 C 35.242188 -16.921875 35.226562 -16.523438 35.0625 -16.140625 C 34.03125 -14.015625 32.898438 -11.882812 31.671875 -9.75 C 30.441406 -7.625 29.15625 -5.671875 27.8125 -3.890625 C 26.476562 -2.117188 25.097656 -0.703125 23.671875 0.359375 C 22.253906 1.429688 20.835938 1.96875 19.421875 1.96875 C 19.148438 1.96875 18.847656 1.941406 18.515625 1.890625 C 14.859375 1.171875 12.59375 -3.742188 11.71875 -12.859375 C 10.789062 -11.609375 9.710938 -10.203125 8.484375 -8.640625 C 7.253906 -7.085938 5.957031 -5.546875 4.59375 -4.015625 C 4.375 -3.796875 4.015625 -3.453125 3.515625 -2.984375 C 3.023438 -2.523438 2.453125 -2.15625 1.796875 -1.875 C 1.140625 -1.601562 0.488281 -1.632812 -0.15625 -1.96875 C -1.46875 -2.457031 -2.097656 -3.878906 -2.046875 -6.234375 C -2.046875 -7.597656 -1.785156 -9.289062 -1.265625 -11.3125 C -0.742188 -13.332031 -0.0078125 -15.363281 0.9375 -17.40625 C 1.894531 -19.457031 3.015625 -21.273438 4.296875 -22.859375 C 5.585938 -24.441406 7.023438 -25.507812 8.609375 -26.0625 C 9.585938 -26.4375 10.785156 -26.5 12.203125 -26.25 C 13.628906 -26.007812 15.109375 -24.988281 16.640625 -23.1875 C 16.910156 -22.863281 17.03125 -22.484375 17 -22.046875 C 16.976562 -21.609375 16.800781 -21.25 16.46875 -20.96875 C 16.144531 -20.695312 15.765625 -20.570312 15.328125 -20.59375 C 14.890625 -20.625 14.53125 -20.804688 14.25 -21.140625 C 12.945312 -22.671875 11.816406 -23.394531 10.859375 -23.3125 C 9.898438 -23.226562 9.09375 -22.941406 8.4375 -22.453125 C 7.238281 -21.578125 6.144531 -20.316406 5.15625 -18.671875 C 4.175781 -17.035156 3.359375 -15.316406 2.703125 -13.515625 C 2.046875 -11.710938 1.582031 -10.03125 1.3125 -8.46875 C 1.039062 -6.914062 0.957031 -5.785156 1.0625 -5.078125 C 1.226562 -5.191406 1.40625 -5.328125 1.59375 -5.484375 C 1.789062 -5.648438 2 -5.867188 2.21875 -6.140625 C 3.851562 -7.941406 5.351562 -9.726562 6.71875 -11.5 C 8.082031 -13.28125 9.257812 -14.851562 10.25 -16.21875 C 10.519531 -16.601562 10.773438 -16.972656 11.015625 -17.328125 C 11.265625 -17.679688 11.5 -17.992188 11.71875 -18.265625 C 12.15625 -18.816406 12.726562 -18.984375 13.4375 -18.765625 C 14.144531 -18.597656 14.523438 -18.132812 14.578125 -17.375 C 14.742188 -13.820312 15.03125 -10.96875 15.4375 -8.8125 C 15.851562 -6.65625 16.304688 -5.039062 16.796875 -3.96875 C 17.285156 -2.90625 17.75 -2.179688 18.1875 -1.796875 C 18.625 -1.421875 18.953125 -1.234375 19.171875 -1.234375 C 20.210938 -1.015625 21.878906 -2.078125 24.171875 -4.421875 C 26.460938 -6.773438 29.140625 -11.117188 32.203125 -17.453125 C 32.421875 -17.890625 32.734375 -18.175781 33.140625 -18.3125 C 33.554688 -18.445312 33.953125 -18.40625 34.328125 -18.1875 Z M 34.328125 -18.1875 "/></g></g></g><g fill="#ff00ff" fill-opacity="1"><g transform="translate(273.628742, 93.154496)"><g><path d="M 35.3125 -18.4375 C 35.644531 -18.21875 35.863281 -17.890625 35.96875 -17.453125 C 36.082031 -17.015625 36.03125 -16.632812 35.8125 -16.3125 C 34.445312 -14.070312 32.679688 -11.722656 30.515625 -9.265625 C 28.359375 -6.804688 26.050781 -4.492188 23.59375 -2.328125 C 21.132812 -0.171875 18.675781 1.585938 16.21875 2.953125 C 13.757812 4.316406 11.550781 5 9.59375 5 C 9.15625 5 8.742188 4.972656 8.359375 4.921875 C 7.484375 4.753906 6.550781 4.273438 5.5625 3.484375 C 4.582031 2.691406 3.898438 1.285156 3.515625 -0.734375 C 3.410156 -1.285156 3.546875 -1.78125 3.921875 -2.21875 C 4.304688 -2.65625 4.910156 -3.226562 5.734375 -3.9375 C 6.390625 -4.476562 7.113281 -5.128906 7.90625 -5.890625 C 8.695312 -6.660156 9.445312 -7.484375 10.15625 -8.359375 C 11.25 -9.828125 11.957031 -11.175781 12.28125 -12.40625 C 12.613281 -13.632812 12.726562 -14.5 12.625 -15 C 12.34375 -14.882812 11.789062 -14.472656 10.96875 -13.765625 C 10.15625 -13.054688 9.066406 -11.632812 7.703125 -9.5 C 6.066406 -7.039062 4.601562 -4.296875 3.3125 -1.265625 C 2.03125 1.765625 0.84375 4.863281 -0.25 8.03125 C -1.34375 11.195312 -2.328125 14.226562 -3.203125 17.125 L -3.609375 18.265625 C -3.828125 18.984375 -4.316406 19.34375 -5.078125 19.34375 C -5.191406 19.34375 -5.273438 19.34375 -5.328125 19.34375 C -6.253906 19.175781 -6.691406 18.628906 -6.640625 17.703125 C -6.640625 17.265625 -6.429688 16.019531 -6.015625 13.96875 C -5.609375 11.914062 -5.0625 9.289062 -4.375 6.09375 C -3.695312 2.90625 -2.929688 -0.640625 -2.078125 -4.546875 C -1.234375 -8.453125 -0.335938 -12.46875 0.609375 -16.59375 C 1.566406 -20.71875 2.492188 -24.757812 3.390625 -28.71875 C 4.296875 -32.675781 5.132812 -36.320312 5.90625 -39.65625 C 5.957031 -39.769531 5.984375 -39.90625 5.984375 -40.0625 C 6.960938 -44.164062 7.726562 -47.363281 8.28125 -49.65625 C 9.53125 -54.675781 10.921875 -59.25 12.453125 -63.375 C 13.984375 -67.5 15.5 -70.800781 17 -73.28125 C 18.5 -75.769531 19.851562 -77.15625 21.0625 -77.4375 C 21.9375 -77.59375 22.644531 -77.289062 23.1875 -76.53125 C 23.945312 -75.488281 23.875 -73.25 22.96875 -69.8125 C 22.070312 -66.375 20.421875 -62.003906 18.015625 -56.703125 C 15.617188 -51.398438 12.617188 -45.472656 9.015625 -38.921875 C 8.191406 -35.535156 7.316406 -31.832031 6.390625 -27.8125 C 5.460938 -23.800781 4.535156 -19.71875 3.609375 -15.5625 C 2.679688 -11.414062 1.804688 -7.457031 0.984375 -3.6875 C 1.585938 -5 2.226562 -6.296875 2.90625 -7.578125 C 3.59375 -8.859375 4.289062 -10.070312 5 -11.21875 C 8.113281 -16.03125 10.789062 -18.351562 13.03125 -18.1875 C 14.175781 -18.082031 14.96875 -17.484375 15.40625 -16.390625 C 15.945312 -15.242188 15.941406 -13.726562 15.390625 -11.84375 C 14.847656 -9.957031 13.925781 -8.140625 12.625 -6.390625 C 11.851562 -5.410156 11.03125 -4.507812 10.15625 -3.6875 C 9.28125 -2.863281 8.488281 -2.15625 7.78125 -1.5625 C 7.613281 -1.394531 7.4375 -1.226562 7.25 -1.0625 C 7.0625 -0.894531 6.910156 -0.757812 6.796875 -0.65625 C 7.015625 0.269531 7.34375 0.894531 7.78125 1.21875 C 8.21875 1.550781 8.601562 1.742188 8.9375 1.796875 C 10.132812 2.015625 11.726562 1.644531 13.71875 0.6875 C 15.71875 -0.257812 17.878906 -1.660156 20.203125 -3.515625 C 22.523438 -5.378906 24.832031 -7.550781 27.125 -10.03125 C 29.414062 -12.519531 31.410156 -15.15625 33.109375 -17.9375 C 33.328125 -18.320312 33.648438 -18.554688 34.078125 -18.640625 C 34.515625 -18.722656 34.925781 -18.65625 35.3125 -18.4375 Z M 20.40625 -72.84375 C 19.476562 -71.476562 18.234375 -69.0625 16.671875 -65.59375 C 15.117188 -62.125 13.578125 -57.410156 12.046875 -51.453125 C 14.773438 -56.972656 16.78125 -61.507812 18.0625 -65.0625 C 19.351562 -68.613281 20.132812 -71.207031 20.40625 -72.84375 Z M 20.40625 -72.84375 "/></g></g></g><g fill="#ff00ff" fill-opacity="1"><g transform="translate(305.586722, 93.154496)"><g><path d="M 35.96875 -18.59375 C 36.351562 -18.375 36.625 -18.0625 36.78125 -17.65625 C 36.945312 -17.25 36.921875 -16.851562 36.703125 -16.46875 C 35.671875 -14.226562 34.398438 -11.710938 32.890625 -8.921875 C 31.390625 -6.140625 29.789062 -3.34375 28.09375 -0.53125 C 26.40625 2.28125 24.6875 4.847656 22.9375 7.171875 C 21.195312 9.492188 19.503906 11.378906 17.859375 12.828125 C 16.222656 14.273438 14.75 15 13.4375 15 C 13.050781 15 12.695312 14.914062 12.375 14.75 C 11.226562 14.3125 10.476562 13.269531 10.125 11.625 C 9.769531 9.988281 9.8125 7.644531 10.25 4.59375 C 11.007812 -0.925781 13.03125 -8.738281 16.3125 -18.84375 C 16.25 -18.84375 16.203125 -18.828125 16.171875 -18.796875 C 16.148438 -18.773438 16.113281 -18.765625 16.0625 -18.765625 C 14.96875 -17.992188 13.65625 -17.195312 12.125 -16.375 C 10.59375 -15.5625 9.007812 -15.019531 7.375 -14.75 C 5.738281 -14.476562 4.179688 -14.832031 2.703125 -15.8125 C 0.628906 -17.289062 -0.429688 -19.335938 -0.484375 -21.953125 C -0.546875 -24.578125 0.429688 -27.445312 2.453125 -30.5625 C 3.109375 -31.539062 3.96875 -32.628906 5.03125 -33.828125 C 6.101562 -35.035156 7.222656 -35.96875 8.390625 -36.625 C 9.566406 -37.28125 10.617188 -37.304688 11.546875 -36.703125 C 12.046875 -36.429688 12.414062 -35.96875 12.65625 -35.3125 C 12.90625 -34.65625 12.890625 -33.644531 12.609375 -32.28125 C 12.335938 -30.914062 11.679688 -29.085938 10.640625 -26.796875 C 9.609375 -24.503906 8.054688 -21.523438 5.984375 -17.859375 C 7.234375 -17.691406 8.632812 -18.046875 10.1875 -18.921875 C 11.75 -19.796875 13.132812 -20.617188 14.34375 -21.390625 C 15.488281 -22.148438 16.441406 -22.707031 17.203125 -23.0625 C 17.972656 -23.414062 18.6875 -23.347656 19.34375 -22.859375 C 19.9375 -22.367188 20.175781 -21.769531 20.0625 -21.0625 C 19.957031 -20.351562 19.851562 -19.804688 19.75 -19.421875 C 17.945312 -13.734375 16.550781 -9.003906 15.5625 -5.234375 C 14.582031 -1.472656 13.914062 1.550781 13.5625 3.84375 C 13.207031 6.144531 13.03125 7.867188 13.03125 9.015625 C 13.03125 10.160156 13.109375 10.910156 13.265625 11.265625 C 13.429688 11.617188 13.515625 11.820312 13.515625 11.875 C 14.171875 11.988281 15.519531 10.9375 17.5625 8.71875 C 19.613281 6.507812 22.0625 3.179688 24.90625 -1.265625 C 27.75 -5.722656 30.726562 -11.226562 33.84375 -17.78125 C 34.0625 -18.21875 34.375 -18.503906 34.78125 -18.640625 C 35.1875 -18.773438 35.582031 -18.757812 35.96875 -18.59375 Z M 2.953125 -24.171875 C 2.617188 -23.023438 2.519531 -22.082031 2.65625 -21.34375 C 2.800781 -20.601562 3.007812 -20.015625 3.28125 -19.578125 C 5.03125 -22.640625 6.351562 -25.125 7.25 -27.03125 C 8.15625 -28.945312 8.769531 -30.421875 9.09375 -31.453125 C 9.425781 -32.492188 9.617188 -33.234375 9.671875 -33.671875 C 9.066406 -33.347656 8.3125 -32.722656 7.40625 -31.796875 C 6.507812 -30.867188 5.632812 -29.75 4.78125 -28.4375 C 3.9375 -27.125 3.328125 -25.703125 2.953125 -24.171875 Z M 2.953125 -24.171875 "/></g></g></g><g fill="#ff00ff" fill-opacity="1"><g transform="translate(338.2822, 93.154496)"><g><path d="M 34.328125 -18.1875 C 34.710938 -18.019531 34.972656 -17.734375 35.109375 -17.328125 C 35.242188 -16.921875 35.226562 -16.523438 35.0625 -16.140625 C 34.03125 -14.015625 32.898438 -11.882812 31.671875 -9.75 C 30.441406 -7.625 29.15625 -5.671875 27.8125 -3.890625 C 26.476562 -2.117188 25.097656 -0.703125 23.671875 0.359375 C 22.253906 1.429688 20.835938 1.96875 19.421875 1.96875 C 19.148438 1.96875 18.847656 1.941406 18.515625 1.890625 C 14.859375 1.171875 12.59375 -3.742188 11.71875 -12.859375 C 10.789062 -11.609375 9.710938 -10.203125 8.484375 -8.640625 C 7.253906 -7.085938 5.957031 -5.546875 4.59375 -4.015625 C 4.375 -3.796875 4.015625 -3.453125 3.515625 -2.984375 C 3.023438 -2.523438 2.453125 -2.15625 1.796875 -1.875 C 1.140625 -1.601562 0.488281 -1.632812 -0.15625 -1.96875 C -1.46875 -2.457031 -2.097656 -3.878906 -2.046875 -6.234375 C -2.046875 -7.597656 -1.785156 -9.289062 -1.265625 -11.3125 C -0.742188 -13.332031 -0.0078125 -15.363281 0.9375 -17.40625 C 1.894531 -19.457031 3.015625 -21.273438 4.296875 -22.859375 C 5.585938 -24.441406 7.023438 -25.507812 8.609375 -26.0625 C 9.585938 -26.4375 10.785156 -26.5 12.203125 -26.25 C 13.628906 -26.007812 15.109375 -24.988281 16.640625 -23.1875 C 16.910156 -22.863281 17.03125 -22.484375 17 -22.046875 C 16.976562 -21.609375 16.800781 -21.25 16.46875 -20.96875 C 16.144531 -20.695312 15.765625 -20.570312 15.328125 -20.59375 C 14.890625 -20.625 14.53125 -20.804688 14.25 -21.140625 C 12.945312 -22.671875 11.816406 -23.394531 10.859375 -23.3125 C 9.898438 -23.226562 9.09375 -22.941406 8.4375 -22.453125 C 7.238281 -21.578125 6.144531 -20.316406 5.15625 -18.671875 C 4.175781 -17.035156 3.359375 -15.316406 2.703125 -13.515625 C 2.046875 -11.710938 1.582031 -10.03125 1.3125 -8.46875 C 1.039062 -6.914062 0.957031 -5.785156 1.0625 -5.078125 C 1.226562 -5.191406 1.40625 -5.328125 1.59375 -5.484375 C 1.789062 -5.648438 2 -5.867188 2.21875 -6.140625 C 3.851562 -7.941406 5.351562 -9.726562 6.71875 -11.5 C 8.082031 -13.28125 9.257812 -14.851562 10.25 -16.21875 C 10.519531 -16.601562 10.773438 -16.972656 11.015625 -17.328125 C 11.265625 -17.679688 11.5 -17.992188 11.71875 -18.265625 C 12.15625 -18.816406 12.726562 -18.984375 13.4375 -18.765625 C 14.144531 -18.597656 14.523438 -18.132812 14.578125 -17.375 C 14.742188 -13.820312 15.03125 -10.96875 15.4375 -8.8125 C 15.851562 -6.65625 16.304688 -5.039062 16.796875 -3.96875 C 17.285156 -2.90625 17.75 -2.179688 18.1875 -1.796875 C 18.625 -1.421875 18.953125 -1.234375 19.171875 -1.234375 C 20.210938 -1.015625 21.878906 -2.078125 24.171875 -4.421875 C 26.460938 -6.773438 29.140625 -11.117188 32.203125 -17.453125 C 32.421875 -17.890625 32.734375 -18.175781 33.140625 -18.3125 C 33.554688 -18.445312 33.953125 -18.40625 34.328125 -18.1875 Z M 34.328125 -18.1875 "/></g></g></g><g fill="#00ffff" fill-opacity="1"><g transform="translate(172.879012, 93.154496)"><g><path d="M 80.375 -83.984375 C 78.03125 -74.585938 75.300781 -66.351562 72.1875 -59.28125 C 69.070312 -52.207031 65.789062 -46.128906 62.34375 -41.046875 C 58.90625 -35.972656 55.453125 -31.710938 51.984375 -28.265625 C 48.515625 -24.828125 45.207031 -22.054688 42.0625 -19.953125 C 38.925781 -17.847656 36.101562 -16.25 33.59375 -15.15625 C 30.15625 -13.625 26.820312 -12.503906 23.59375 -11.796875 C 25.726562 -9.285156 27.832031 -6.363281 29.90625 -3.03125 C 31.976562 0.300781 34.082031 3.769531 36.21875 7.375 C 38.070312 10.488281 39.941406 13.570312 41.828125 16.625 C 43.710938 19.6875 45.625 22.5 47.5625 25.0625 C 49.5 27.632812 51.460938 29.765625 53.453125 31.453125 C 55.453125 33.148438 57.460938 34.21875 59.484375 34.65625 C 62.160156 35.257812 64.863281 34.632812 67.59375 32.78125 C 67.976562 32.5 68.375 32.398438 68.78125 32.484375 C 69.195312 32.566406 69.539062 32.773438 69.8125 33.109375 C 70.03125 33.484375 70.109375 33.890625 70.046875 34.328125 C 69.992188 34.765625 69.78125 35.09375 69.40625 35.3125 C 66.78125 37.113281 64.128906 38.015625 61.453125 38.015625 C 60.578125 38.015625 59.703125 37.929688 58.828125 37.765625 C 56.421875 37.222656 54.113281 36.050781 51.90625 34.25 C 49.695312 32.445312 47.550781 30.191406 45.46875 27.484375 C 43.394531 24.785156 41.359375 21.835938 39.359375 18.640625 C 37.367188 15.441406 35.394531 12.207031 33.4375 8.9375 C 31.351562 5.382812 29.234375 1.875 27.078125 -1.59375 C 24.921875 -5.0625 22.75 -8.050781 20.5625 -10.5625 C 19.363281 -5.539062 18.21875 -0.628906 17.125 4.171875 C 16.03125 8.984375 15.03125 13.53125 14.125 17.8125 C 13.226562 22.101562 12.460938 25.941406 11.828125 29.328125 C 11.203125 32.710938 10.753906 35.445312 10.484375 37.53125 C 10.703125 37.039062 10.945312 36.492188 11.21875 35.890625 C 11.382812 35.503906 11.671875 35.226562 12.078125 35.0625 C 12.492188 34.90625 12.894531 34.90625 13.28125 35.0625 C 13.707031 35.226562 13.988281 35.515625 14.125 35.921875 C 14.269531 36.335938 14.257812 36.765625 14.09375 37.203125 C 13.113281 39.492188 12.265625 41.1875 11.546875 42.28125 C 10.835938 43.375 10.078125 43.921875 9.265625 43.921875 C 9.046875 43.921875 8.828125 43.894531 8.609375 43.84375 C 8.054688 43.625 7.65625 43.195312 7.40625 42.5625 C 7.164062 41.9375 7.097656 40.859375 7.203125 39.328125 C 7.316406 37.796875 7.59375 35.554688 8.03125 32.609375 C 8.957031 27.253906 10.488281 19.660156 12.625 9.828125 C 13.332031 6.609375 14.09375 3.238281 14.90625 -0.28125 C 15.726562 -3.8125 16.550781 -7.40625 17.375 -11.0625 C 16.445312 -11.0625 15.570312 -11.085938 14.75 -11.140625 C 12.5625 -11.304688 10.617188 -11.742188 8.921875 -12.453125 C 7.234375 -13.160156 5.953125 -14.0625 5.078125 -15.15625 C 3.828125 -16.738281 3.691406 -18.1875 4.671875 -19.5 C 5.429688 -20.476562 6.6875 -20.941406 8.4375 -20.890625 C 10.1875 -20.835938 12.289062 -20.289062 14.75 -19.25 C 16.0625 -18.65625 17.398438 -17.835938 18.765625 -16.796875 C 20.078125 -22.316406 21.382812 -27.832031 22.6875 -33.34375 C 24 -38.863281 25.257812 -44.082031 26.46875 -49 C 27.613281 -53.914062 28.691406 -58.4375 29.703125 -62.5625 C 30.710938 -66.6875 31.570312 -70.25 32.28125 -73.25 C 32.332031 -73.6875 32.550781 -74.015625 32.9375 -74.234375 C 33.320312 -74.453125 33.734375 -74.535156 34.171875 -74.484375 C 34.546875 -74.367188 34.859375 -74.117188 35.109375 -73.734375 C 35.359375 -73.359375 35.425781 -72.953125 35.3125 -72.515625 C 34.601562 -69.515625 33.753906 -65.953125 32.765625 -61.828125 C 31.785156 -57.703125 30.695312 -53.179688 29.5 -48.265625 C 28.351562 -43.566406 27.082031 -38.304688 25.6875 -32.484375 C 24.289062 -26.671875 22.882812 -20.734375 21.46875 -14.671875 C 23.320312 -14.992188 25.175781 -15.457031 27.03125 -16.0625 C 28.894531 -16.664062 30.671875 -17.320312 32.359375 -18.03125 C 34.710938 -19.125 37.40625 -20.679688 40.4375 -22.703125 C 43.46875 -24.722656 46.648438 -27.382812 49.984375 -30.6875 C 53.316406 -33.988281 56.632812 -38.109375 59.9375 -43.046875 C 63.238281 -47.992188 66.390625 -53.894531 69.390625 -60.75 C 72.398438 -67.613281 75.050781 -75.601562 77.34375 -84.71875 C 77.457031 -85.15625 77.703125 -85.484375 78.078125 -85.703125 C 78.460938 -85.921875 78.875 -85.976562 79.3125 -85.875 C 79.695312 -85.757812 80 -85.507812 80.21875 -85.125 C 80.4375 -84.75 80.488281 -84.367188 80.375 -83.984375 Z M 8.765625 -16.0625 C 9.859375 -15.351562 11.097656 -14.847656 12.484375 -14.546875 C 13.878906 -14.242188 15.34375 -14.117188 16.875 -14.171875 C 15.726562 -15.160156 14.582031 -15.898438 13.4375 -16.390625 C 11.46875 -17.203125 10.003906 -17.632812 9.046875 -17.6875 C 8.097656 -17.75 7.515625 -17.722656 7.296875 -17.609375 C 7.296875 -17.503906 7.40625 -17.300781 7.625 -17 C 7.84375 -16.695312 8.222656 -16.382812 8.765625 -16.0625 Z M 8.765625 -16.0625 "/></g></g></g><g fill="#00ffff" fill-opacity="1"><g transform="translate(239.08939, 93.154496)"><g><path d="M 34.328125 -18.1875 C 34.710938 -18.019531 34.972656 -17.734375 35.109375 -17.328125 C 35.242188 -16.921875 35.226562 -16.523438 35.0625 -16.140625 C 34.03125 -14.015625 32.898438 -11.882812 31.671875 -9.75 C 30.441406 -7.625 29.15625 -5.671875 27.8125 -3.890625 C 26.476562 -2.117188 25.097656 -0.703125 23.671875 0.359375 C 22.253906 1.429688 20.835938 1.96875 19.421875 1.96875 C 19.148438 1.96875 18.847656 1.941406 18.515625 1.890625 C 14.859375 1.171875 12.59375 -3.742188 11.71875 -12.859375 C 10.789062 -11.609375 9.710938 -10.203125 8.484375 -8.640625 C 7.253906 -7.085938 5.957031 -5.546875 4.59375 -4.015625 C 4.375 -3.796875 4.015625 -3.453125 3.515625 -2.984375 C 3.023438 -2.523438 2.453125 -2.15625 1.796875 -1.875 C 1.140625 -1.601562 0.488281 -1.632812 -0.15625 -1.96875 C -1.46875 -2.457031 -2.097656 -3.878906 -2.046875 -6.234375 C -2.046875 -7.597656 -1.785156 -9.289062 -1.265625 -11.3125 C -0.742188 -13.332031 -0.0078125 -15.363281 0.9375 -17.40625 C 1.894531 -19.457031 3.015625 -21.273438 4.296875 -22.859375 C 5.585938 -24.441406 7.023438 -25.507812 8.609375 -26.0625 C 9.585938 -26.4375 10.785156 -26.5 12.203125 -26.25 C 13.628906 -26.007812 15.109375 -24.988281 16.640625 -23.1875 C 16.910156 -22.863281 17.03125 -22.484375 17 -22.046875 C 16.976562 -21.609375 16.800781 -21.25 16.46875 -20.96875 C 16.144531 -20.695312 15.765625 -20.570312 15.328125 -20.59375 C 14.890625 -20.625 14.53125 -20.804688 14.25 -21.140625 C 12.945312 -22.671875 11.816406 -23.394531 10.859375 -23.3125 C 9.898438 -23.226562 9.09375 -22.941406 8.4375 -22.453125 C 7.238281 -21.578125 6.144531 -20.316406 5.15625 -18.671875 C 4.175781 -17.035156 3.359375 -15.316406 2.703125 -13.515625 C 2.046875 -11.710938 1.582031 -10.03125 1.3125 -8.46875 C 1.039062 -6.914062 0.957031 -5.785156 1.0625 -5.078125 C 1.226562 -5.191406 1.40625 -5.328125 1.59375 -5.484375 C 1.789062 -5.648438 2 -5.867188 2.21875 -6.140625 C 3.851562 -7.941406 5.351562 -9.726562 6.71875 -11.5 C 8.082031 -13.28125 9.257812 -14.851562 10.25 -16.21875 C 10.519531 -16.601562 10.773438 -16.972656 11.015625 -17.328125 C 11.265625 -17.679688 11.5 -17.992188 11.71875 -18.265625 C 12.15625 -18.816406 12.726562 -18.984375 13.4375 -18.765625 C 14.144531 -18.597656 14.523438 -18.132812 14.578125 -17.375 C 14.742188 -13.820312 15.03125 -10.96875 15.4375 -8.8125 C 15.851562 -6.65625 16.304688 -5.039062 16.796875 -3.96875 C 17.285156 -2.90625 17.75 -2.179688 18.1875 -1.796875 C 18.625 -1.421875 18.953125 -1.234375 19.171875 -1.234375 C 20.210938 -1.015625 21.878906 -2.078125 24.171875 -4.421875 C 26.460938 -6.773438 29.140625 -11.117188 32.203125 -17.453125 C 32.421875 -17.890625 32.734375 -18.175781 33.140625 -18.3125 C 33.554688 -18.445312 33.953125 -18.40625 34.328125 -18.1875 Z M 34.328125 -18.1875 "/></g></g></g><g fill="#00ffff" fill-opacity="1"><g transform="translate(270.555721, 93.154496)"><g><path d="M 35.3125 -18.4375 C 35.644531 -18.21875 35.863281 -17.890625 35.96875 -17.453125 C 36.082031 -17.015625 36.03125 -16.632812 35.8125 -16.3125 C 34.445312 -14.070312 32.679688 -11.722656 30.515625 -9.265625 C 28.359375 -6.804688 26.050781 -4.492188 23.59375 -2.328125 C 21.132812 -0.171875 18.675781 1.585938 16.21875 2.953125 C 13.757812 4.316406 11.550781 5 9.59375 5 C 9.15625 5 8.742188 4.972656 8.359375 4.921875 C 7.484375 4.753906 6.550781 4.273438 5.5625 3.484375 C 4.582031 2.691406 3.898438 1.285156 3.515625 -0.734375 C 3.410156 -1.285156 3.546875 -1.78125 3.921875 -2.21875 C 4.304688 -2.65625 4.910156 -3.226562 5.734375 -3.9375 C 6.390625 -4.476562 7.113281 -5.128906 7.90625 -5.890625 C 8.695312 -6.660156 9.445312 -7.484375 10.15625 -8.359375 C 11.25 -9.828125 11.957031 -11.175781 12.28125 -12.40625 C 12.613281 -13.632812 12.726562 -14.5 12.625 -15 C 12.34375 -14.882812 11.789062 -14.472656 10.96875 -13.765625 C 10.15625 -13.054688 9.066406 -11.632812 7.703125 -9.5 C 6.066406 -7.039062 4.601562 -4.296875 3.3125 -1.265625 C 2.03125 1.765625 0.84375 4.863281 -0.25 8.03125 C -1.34375 11.195312 -2.328125 14.226562 -3.203125 17.125 L -3.609375 18.265625 C -3.828125 18.984375 -4.316406 19.34375 -5.078125 19.34375 C -5.191406 19.34375 -5.273438 19.34375 -5.328125 19.34375 C -6.253906 19.175781 -6.691406 18.628906 -6.640625 17.703125 C -6.640625 17.265625 -6.429688 16.019531 -6.015625 13.96875 C -5.609375 11.914062 -5.0625 9.289062 -4.375 6.09375 C -3.695312 2.90625 -2.929688 -0.640625 -2.078125 -4.546875 C -1.234375 -8.453125 -0.335938 -12.46875 0.609375 -16.59375 C 1.566406 -20.71875 2.492188 -24.757812 3.390625 -28.71875 C 4.296875 -32.675781 5.132812 -36.320312 5.90625 -39.65625 C 5.957031 -39.769531 5.984375 -39.90625 5.984375 -40.0625 C 6.960938 -44.164062 7.726562 -47.363281 8.28125 -49.65625 C 9.53125 -54.675781 10.921875 -59.25 12.453125 -63.375 C 13.984375 -67.5 15.5 -70.800781 17 -73.28125 C 18.5 -75.769531 19.851562 -77.15625 21.0625 -77.4375 C 21.9375 -77.59375 22.644531 -77.289062 23.1875 -76.53125 C 23.945312 -75.488281 23.875 -73.25 22.96875 -69.8125 C 22.070312 -66.375 20.421875 -62.003906 18.015625 -56.703125 C 15.617188 -51.398438 12.617188 -45.472656 9.015625 -38.921875 C 8.191406 -35.535156 7.316406 -31.832031 6.390625 -27.8125 C 5.460938 -23.800781 4.535156 -19.71875 3.609375 -15.5625 C 2.679688 -11.414062 1.804688 -7.457031 0.984375 -3.6875 C 1.585938 -5 2.226562 -6.296875 2.90625 -7.578125 C 3.59375 -8.859375 4.289062 -10.070312 5 -11.21875 C 8.113281 -16.03125 10.789062 -18.351562 13.03125 -18.1875 C 14.175781 -18.082031 14.96875 -17.484375 15.40625 -16.390625 C 15.945312 -15.242188 15.941406 -13.726562 15.390625 -11.84375 C 14.847656 -9.957031 13.925781 -8.140625 12.625 -6.390625 C 11.851562 -5.410156 11.03125 -4.507812 10.15625 -3.6875 C 9.28125 -2.863281 8.488281 -2.15625 7.78125 -1.5625 C 7.613281 -1.394531 7.4375 -1.226562 7.25 -1.0625 C 7.0625 -0.894531 6.910156 -0.757812 6.796875 -0.65625 C 7.015625 0.269531 7.34375 0.894531 7.78125 1.21875 C 8.21875 1.550781 8.601562 1.742188 8.9375 1.796875 C 10.132812 2.015625 11.726562 1.644531 13.71875 0.6875 C 15.71875 -0.257812 17.878906 -1.660156 20.203125 -3.515625 C 22.523438 -5.378906 24.832031 -7.550781 27.125 -10.03125 C 29.414062 -12.519531 31.410156 -15.15625 33.109375 -17.9375 C 33.328125 -18.320312 33.648438 -18.554688 34.078125 -18.640625 C 34.515625 -18.722656 34.925781 -18.65625 35.3125 -18.4375 Z M 20.40625 -72.84375 C 19.476562 -71.476562 18.234375 -69.0625 16.671875 -65.59375 C 15.117188 -62.125 13.578125 -57.410156 12.046875 -51.453125 C 14.773438 -56.972656 16.78125 -61.507812 18.0625 -65.0625 C 19.351562 -68.613281 20.132812 -71.207031 20.40625 -72.84375 Z M 20.40625 -72.84375 "/></g></g></g><g fill="#00ffff" fill-opacity="1"><g transform="translate(302.513701, 93.154496)"><g><path d="M 35.96875 -18.59375 C 36.351562 -18.375 36.625 -18.0625 36.78125 -17.65625 C 36.945312 -17.25 36.921875 -16.851562 36.703125 -16.46875 C 35.671875 -14.226562 34.398438 -11.710938 32.890625 -8.921875 C 31.390625 -6.140625 29.789062 -3.34375 28.09375 -0.53125 C 26.40625 2.28125 24.6875 4.847656 22.9375 7.171875 C 21.195312 9.492188 19.503906 11.378906 17.859375 12.828125 C 16.222656 14.273438 14.75 15 13.4375 15 C 13.050781 15 12.695312 14.914062 12.375 14.75 C 11.226562 14.3125 10.476562 13.269531 10.125 11.625 C 9.769531 9.988281 9.8125 7.644531 10.25 4.59375 C 11.007812 -0.925781 13.03125 -8.738281 16.3125 -18.84375 C 16.25 -18.84375 16.203125 -18.828125 16.171875 -18.796875 C 16.148438 -18.773438 16.113281 -18.765625 16.0625 -18.765625 C 14.96875 -17.992188 13.65625 -17.195312 12.125 -16.375 C 10.59375 -15.5625 9.007812 -15.019531 7.375 -14.75 C 5.738281 -14.476562 4.179688 -14.832031 2.703125 -15.8125 C 0.628906 -17.289062 -0.429688 -19.335938 -0.484375 -21.953125 C -0.546875 -24.578125 0.429688 -27.445312 2.453125 -30.5625 C 3.109375 -31.539062 3.96875 -32.628906 5.03125 -33.828125 C 6.101562 -35.035156 7.222656 -35.96875 8.390625 -36.625 C 9.566406 -37.28125 10.617188 -37.304688 11.546875 -36.703125 C 12.046875 -36.429688 12.414062 -35.96875 12.65625 -35.3125 C 12.90625 -34.65625 12.890625 -33.644531 12.609375 -32.28125 C 12.335938 -30.914062 11.679688 -29.085938 10.640625 -26.796875 C 9.609375 -24.503906 8.054688 -21.523438 5.984375 -17.859375 C 7.234375 -17.691406 8.632812 -18.046875 10.1875 -18.921875 C 11.75 -19.796875 13.132812 -20.617188 14.34375 -21.390625 C 15.488281 -22.148438 16.441406 -22.707031 17.203125 -23.0625 C 17.972656 -23.414062 18.6875 -23.347656 19.34375 -22.859375 C 19.9375 -22.367188 20.175781 -21.769531 20.0625 -21.0625 C 19.957031 -20.351562 19.851562 -19.804688 19.75 -19.421875 C 17.945312 -13.734375 16.550781 -9.003906 15.5625 -5.234375 C 14.582031 -1.472656 13.914062 1.550781 13.5625 3.84375 C 13.207031 6.144531 13.03125 7.867188 13.03125 9.015625 C 13.03125 10.160156 13.109375 10.910156 13.265625 11.265625 C 13.429688 11.617188 13.515625 11.820312 13.515625 11.875 C 14.171875 11.988281 15.519531 10.9375 17.5625 8.71875 C 19.613281 6.507812 22.0625 3.179688 24.90625 -1.265625 C 27.75 -5.722656 30.726562 -11.226562 33.84375 -17.78125 C 34.0625 -18.21875 34.375 -18.503906 34.78125 -18.640625 C 35.1875 -18.773438 35.582031 -18.757812 35.96875 -18.59375 Z M 2.953125 -24.171875 C 2.617188 -23.023438 2.519531 -22.082031 2.65625 -21.34375 C 2.800781 -20.601562 3.007812 -20.015625 3.28125 -19.578125 C 5.03125 -22.640625 6.351562 -25.125 7.25 -27.03125 C 8.15625 -28.945312 8.769531 -30.421875 9.09375 -31.453125 C 9.425781 -32.492188 9.617188 -33.234375 9.671875 -33.671875 C 9.066406 -33.347656 8.3125 -32.722656 7.40625 -31.796875 C 6.507812 -30.867188 5.632812 -29.75 4.78125 -28.4375 C 3.9375 -27.125 3.328125 -25.703125 2.953125 -24.171875 Z M 2.953125 -24.171875 "/></g></g></g><g fill="#00ffff" fill-opacity="1"><g transform="translate(335.209178, 93.154496)"><g><path d="M 34.328125 -18.1875 C 34.710938 -18.019531 34.972656 -17.734375 35.109375 -17.328125 C 35.242188 -16.921875 35.226562 -16.523438 35.0625 -16.140625 C 34.03125 -14.015625 32.898438 -11.882812 31.671875 -9.75 C 30.441406 -7.625 29.15625 -5.671875 27.8125 -3.890625 C 26.476562 -2.117188 25.097656 -0.703125 23.671875 0.359375 C 22.253906 1.429688 20.835938 1.96875 19.421875 1.96875 C 19.148438 1.96875 18.847656 1.941406 18.515625 1.890625 C 14.859375 1.171875 12.59375 -3.742188 11.71875 -12.859375 C 10.789062 -11.609375 9.710938 -10.203125 8.484375 -8.640625 C 7.253906 -7.085938 5.957031 -5.546875 4.59375 -4.015625 C 4.375 -3.796875 4.015625 -3.453125 3.515625 -2.984375 C 3.023438 -2.523438 2.453125 -2.15625 1.796875 -1.875 C 1.140625 -1.601562 0.488281 -1.632812 -0.15625 -1.96875 C -1.46875 -2.457031 -2.097656 -3.878906 -2.046875 -6.234375 C -2.046875 -7.597656 -1.785156 -9.289062 -1.265625 -11.3125 C -0.742188 -13.332031 -0.0078125 -15.363281 0.9375 -17.40625 C 1.894531 -19.457031 3.015625 -21.273438 4.296875 -22.859375 C 5.585938 -24.441406 7.023438 -25.507812 8.609375 -26.0625 C 9.585938 -26.4375 10.785156 -26.5 12.203125 -26.25 C 13.628906 -26.007812 15.109375 -24.988281 16.640625 -23.1875 C 16.910156 -22.863281 17.03125 -22.484375 17 -22.046875 C 16.976562 -21.609375 16.800781 -21.25 16.46875 -20.96875 C 16.144531 -20.695312 15.765625 -20.570312 15.328125 -20.59375 C 14.890625 -20.625 14.53125 -20.804688 14.25 -21.140625 C 12.945312 -22.671875 11.816406 -23.394531 10.859375 -23.3125 C 9.898438 -23.226562 9.09375 -22.941406 8.4375 -22.453125 C 7.238281 -21.578125 6.144531 -20.316406 5.15625 -18.671875 C 4.175781 -17.035156 3.359375 -15.316406 2.703125 -13.515625 C 2.046875 -11.710938 1.582031 -10.03125 1.3125 -8.46875 C 1.039062 -6.914062 0.957031 -5.785156 1.0625 -5.078125 C 1.226562 -5.191406 1.40625 -5.328125 1.59375 -5.484375 C 1.789062 -5.648438 2 -5.867188 2.21875 -6.140625 C 3.851562 -7.941406 5.351562 -9.726562 6.71875 -11.5 C 8.082031 -13.28125 9.257812 -14.851562 10.25 -16.21875 C 10.519531 -16.601562 10.773438 -16.972656 11.015625 -17.328125 C 11.265625 -17.679688 11.5 -17.992188 11.71875 -18.265625 C 12.15625 -18.816406 12.726562 -18.984375 13.4375 -18.765625 C 14.144531 -18.597656 14.523438 -18.132812 14.578125 -17.375 C 14.742188 -13.820312 15.03125 -10.96875 15.4375 -8.8125 C 15.851562 -6.65625 16.304688 -5.039062 16.796875 -3.96875 C 17.285156 -2.90625 17.75 -2.179688 18.1875 -1.796875 C 18.625 -1.421875 18.953125 -1.234375 19.171875 -1.234375 C 20.210938 -1.015625 21.878906 -2.078125 24.171875 -4.421875 C 26.460938 -6.773438 29.140625 -11.117188 32.203125 -17.453125 C 32.421875 -17.890625 32.734375 -18.175781 33.140625 -18.3125 C 33.554688 -18.445312 33.953125 -18.40625 34.328125 -18.1875 Z M 34.328125 -18.1875 "/></g></g></g><g fill="#ffffff" fill-opacity="1"><g transform="translate(174.415523, 93.154496)"><g><path d="M 80.375 -83.984375 C 78.03125 -74.585938 75.300781 -66.351562 72.1875 -59.28125 C 69.070312 -52.207031 65.789062 -46.128906 62.34375 -41.046875 C 58.90625 -35.972656 55.453125 -31.710938 51.984375 -28.265625 C 48.515625 -24.828125 45.207031 -22.054688 42.0625 -19.953125 C 38.925781 -17.847656 36.101562 -16.25 33.59375 -15.15625 C 30.15625 -13.625 26.820312 -12.503906 23.59375 -11.796875 C 25.726562 -9.285156 27.832031 -6.363281 29.90625 -3.03125 C 31.976562 0.300781 34.082031 3.769531 36.21875 7.375 C 38.070312 10.488281 39.941406 13.570312 41.828125 16.625 C 43.710938 19.6875 45.625 22.5 47.5625 25.0625 C 49.5 27.632812 51.460938 29.765625 53.453125 31.453125 C 55.453125 33.148438 57.460938 34.21875 59.484375 34.65625 C 62.160156 35.257812 64.863281 34.632812 67.59375 32.78125 C 67.976562 32.5 68.375 32.398438 68.78125 32.484375 C 69.195312 32.566406 69.539062 32.773438 69.8125 33.109375 C 70.03125 33.484375 70.109375 33.890625 70.046875 34.328125 C 69.992188 34.765625 69.78125 35.09375 69.40625 35.3125 C 66.78125 37.113281 64.128906 38.015625 61.453125 38.015625 C 60.578125 38.015625 59.703125 37.929688 58.828125 37.765625 C 56.421875 37.222656 54.113281 36.050781 51.90625 34.25 C 49.695312 32.445312 47.550781 30.191406 45.46875 27.484375 C 43.394531 24.785156 41.359375 21.835938 39.359375 18.640625 C 37.367188 15.441406 35.394531 12.207031 33.4375 8.9375 C 31.351562 5.382812 29.234375 1.875 27.078125 -1.59375 C 24.921875 -5.0625 22.75 -8.050781 20.5625 -10.5625 C 19.363281 -5.539062 18.21875 -0.628906 17.125 4.171875 C 16.03125 8.984375 15.03125 13.53125 14.125 17.8125 C 13.226562 22.101562 12.460938 25.941406 11.828125 29.328125 C 11.203125 32.710938 10.753906 35.445312 10.484375 37.53125 C 10.703125 37.039062 10.945312 36.492188 11.21875 35.890625 C 11.382812 35.503906 11.671875 35.226562 12.078125 35.0625 C 12.492188 34.90625 12.894531 34.90625 13.28125 35.0625 C 13.707031 35.226562 13.988281 35.515625 14.125 35.921875 C 14.269531 36.335938 14.257812 36.765625 14.09375 37.203125 C 13.113281 39.492188 12.265625 41.1875 11.546875 42.28125 C 10.835938 43.375 10.078125 43.921875 9.265625 43.921875 C 9.046875 43.921875 8.828125 43.894531 8.609375 43.84375 C 8.054688 43.625 7.65625 43.195312 7.40625 42.5625 C 7.164062 41.9375 7.097656 40.859375 7.203125 39.328125 C 7.316406 37.796875 7.59375 35.554688 8.03125 32.609375 C 8.957031 27.253906 10.488281 19.660156 12.625 9.828125 C 13.332031 6.609375 14.09375 3.238281 14.90625 -0.28125 C 15.726562 -3.8125 16.550781 -7.40625 17.375 -11.0625 C 16.445312 -11.0625 15.570312 -11.085938 14.75 -11.140625 C 12.5625 -11.304688 10.617188 -11.742188 8.921875 -12.453125 C 7.234375 -13.160156 5.953125 -14.0625 5.078125 -15.15625 C 3.828125 -16.738281 3.691406 -18.1875 4.671875 -19.5 C 5.429688 -20.476562 6.6875 -20.941406 8.4375 -20.890625 C 10.1875 -20.835938 12.289062 -20.289062 14.75 -19.25 C 16.0625 -18.65625 17.398438 -17.835938 18.765625 -16.796875 C 20.078125 -22.316406 21.382812 -27.832031 22.6875 -33.34375 C 24 -38.863281 25.257812 -44.082031 26.46875 -49 C 27.613281 -53.914062 28.691406 -58.4375 29.703125 -62.5625 C 30.710938 -66.6875 31.570312 -70.25 32.28125 -73.25 C 32.332031 -73.6875 32.550781 -74.015625 32.9375 -74.234375 C 33.320312 -74.453125 33.734375 -74.535156 34.171875 -74.484375 C 34.546875 -74.367188 34.859375 -74.117188 35.109375 -73.734375 C 35.359375 -73.359375 35.425781 -72.953125 35.3125 -72.515625 C 34.601562 -69.515625 33.753906 -65.953125 32.765625 -61.828125 C 31.785156 -57.703125 30.695312 -53.179688 29.5 -48.265625 C 28.351562 -43.566406 27.082031 -38.304688 25.6875 -32.484375 C 24.289062 -26.671875 22.882812 -20.734375 21.46875 -14.671875 C 23.320312 -14.992188 25.175781 -15.457031 27.03125 -16.0625 C 28.894531 -16.664062 30.671875 -17.320312 32.359375 -18.03125 C 34.710938 -19.125 37.40625 -20.679688 40.4375 -22.703125 C 43.46875 -24.722656 46.648438 -27.382812 49.984375 -30.6875 C 53.316406 -33.988281 56.632812 -38.109375 59.9375 -43.046875 C 63.238281 -47.992188 66.390625 -53.894531 69.390625 -60.75 C 72.398438 -67.613281 75.050781 -75.601562 77.34375 -84.71875 C 77.457031 -85.15625 77.703125 -85.484375 78.078125 -85.703125 C 78.460938 -85.921875 78.875 -85.976562 79.3125 -85.875 C 79.695312 -85.757812 80 -85.507812 80.21875 -85.125 C 80.4375 -84.75 80.488281 -84.367188 80.375 -83.984375 Z M 8.765625 -16.0625 C 9.859375 -15.351562 11.097656 -14.847656 12.484375 -14.546875 C 13.878906 -14.242188 15.34375 -14.117188 16.875 -14.171875 C 15.726562 -15.160156 14.582031 -15.898438 13.4375 -16.390625 C 11.46875 -17.203125 10.003906 -17.632812 9.046875 -17.6875 C 8.097656 -17.75 7.515625 -17.722656 7.296875 -17.609375 C 7.296875 -17.503906 7.40625 -17.300781 7.625 -17 C 7.84375 -16.695312 8.222656 -16.382812 8.765625 -16.0625 Z M 8.765625 -16.0625 "/></g></g></g><g fill="#ffffff" fill-opacity="1"><g transform="translate(240.6259, 93.154496)"><g><path d="M 34.328125 -18.1875 C 34.710938 -18.019531 34.972656 -17.734375 35.109375 -17.328125 C 35.242188 -16.921875 35.226562 -16.523438 35.0625 -16.140625 C 34.03125 -14.015625 32.898438 -11.882812 31.671875 -9.75 C 30.441406 -7.625 29.15625 -5.671875 27.8125 -3.890625 C 26.476562 -2.117188 25.097656 -0.703125 23.671875 0.359375 C 22.253906 1.429688 20.835938 1.96875 19.421875 1.96875 C 19.148438 1.96875 18.847656 1.941406 18.515625 1.890625 C 14.859375 1.171875 12.59375 -3.742188 11.71875 -12.859375 C 10.789062 -11.609375 9.710938 -10.203125 8.484375 -8.640625 C 7.253906 -7.085938 5.957031 -5.546875 4.59375 -4.015625 C 4.375 -3.796875 4.015625 -3.453125 3.515625 -2.984375 C 3.023438 -2.523438 2.453125 -2.15625 1.796875 -1.875 C 1.140625 -1.601562 0.488281 -1.632812 -0.15625 -1.96875 C -1.46875 -2.457031 -2.097656 -3.878906 -2.046875 -6.234375 C -2.046875 -7.597656 -1.785156 -9.289062 -1.265625 -11.3125 C -0.742188 -13.332031 -0.0078125 -15.363281 0.9375 -17.40625 C 1.894531 -19.457031 3.015625 -21.273438 4.296875 -22.859375 C 5.585938 -24.441406 7.023438 -25.507812 8.609375 -26.0625 C 9.585938 -26.4375 10.785156 -26.5 12.203125 -26.25 C 13.628906 -26.007812 15.109375 -24.988281 16.640625 -23.1875 C 16.910156 -22.863281 17.03125 -22.484375 17 -22.046875 C 16.976562 -21.609375 16.800781 -21.25 16.46875 -20.96875 C 16.144531 -20.695312 15.765625 -20.570312 15.328125 -20.59375 C 14.890625 -20.625 14.53125 -20.804688 14.25 -21.140625 C 12.945312 -22.671875 11.816406 -23.394531 10.859375 -23.3125 C 9.898438 -23.226562 9.09375 -22.941406 8.4375 -22.453125 C 7.238281 -21.578125 6.144531 -20.316406 5.15625 -18.671875 C 4.175781 -17.035156 3.359375 -15.316406 2.703125 -13.515625 C 2.046875 -11.710938 1.582031 -10.03125 1.3125 -8.46875 C 1.039062 -6.914062 0.957031 -5.785156 1.0625 -5.078125 C 1.226562 -5.191406 1.40625 -5.328125 1.59375 -5.484375 C 1.789062 -5.648438 2 -5.867188 2.21875 -6.140625 C 3.851562 -7.941406 5.351562 -9.726562 6.71875 -11.5 C 8.082031 -13.28125 9.257812 -14.851562 10.25 -16.21875 C 10.519531 -16.601562 10.773438 -16.972656 11.015625 -17.328125 C 11.265625 -17.679688 11.5 -17.992188 11.71875 -18.265625 C 12.15625 -18.816406 12.726562 -18.984375 13.4375 -18.765625 C 14.144531 -18.597656 14.523438 -18.132812 14.578125 -17.375 C 14.742188 -13.820312 15.03125 -10.96875 15.4375 -8.8125 C 15.851562 -6.65625 16.304688 -5.039062 16.796875 -3.96875 C 17.285156 -2.90625 17.75 -2.179688 18.1875 -1.796875 C 18.625 -1.421875 18.953125 -1.234375 19.171875 -1.234375 C 20.210938 -1.015625 21.878906 -2.078125 24.171875 -4.421875 C 26.460938 -6.773438 29.140625 -11.117188 32.203125 -17.453125 C 32.421875 -17.890625 32.734375 -18.175781 33.140625 -18.3125 C 33.554688 -18.445312 33.953125 -18.40625 34.328125 -18.1875 Z M 34.328125 -18.1875 "/></g></g></g><g fill="#ffffff" fill-opacity="1"><g transform="translate(272.092231, 93.154496)"><g><path d="M 35.3125 -18.4375 C 35.644531 -18.21875 35.863281 -17.890625 35.96875 -17.453125 C 36.082031 -17.015625 36.03125 -16.632812 35.8125 -16.3125 C 34.445312 -14.070312 32.679688 -11.722656 30.515625 -9.265625 C 28.359375 -6.804688 26.050781 -4.492188 23.59375 -2.328125 C 21.132812 -0.171875 18.675781 1.585938 16.21875 2.953125 C 13.757812 4.316406 11.550781 5 9.59375 5 C 9.15625 5 8.742188 4.972656 8.359375 4.921875 C 7.484375 4.753906 6.550781 4.273438 5.5625 3.484375 C 4.582031 2.691406 3.898438 1.285156 3.515625 -0.734375 C 3.410156 -1.285156 3.546875 -1.78125 3.921875 -2.21875 C 4.304688 -2.65625 4.910156 -3.226562 5.734375 -3.9375 C 6.390625 -4.476562 7.113281 -5.128906 7.90625 -5.890625 C 8.695312 -6.660156 9.445312 -7.484375 10.15625 -8.359375 C 11.25 -9.828125 11.957031 -11.175781 12.28125 -12.40625 C 12.613281 -13.632812 12.726562 -14.5 12.625 -15 C 12.34375 -14.882812 11.789062 -14.472656 10.96875 -13.765625 C 10.15625 -13.054688 9.066406 -11.632812 7.703125 -9.5 C 6.066406 -7.039062 4.601562 -4.296875 3.3125 -1.265625 C 2.03125 1.765625 0.84375 4.863281 -0.25 8.03125 C -1.34375 11.195312 -2.328125 14.226562 -3.203125 17.125 L -3.609375 18.265625 C -3.828125 18.984375 -4.316406 19.34375 -5.078125 19.34375 C -5.191406 19.34375 -5.273438 19.34375 -5.328125 19.34375 C -6.253906 19.175781 -6.691406 18.628906 -6.640625 17.703125 C -6.640625 17.265625 -6.429688 16.019531 -6.015625 13.96875 C -5.609375 11.914062 -5.0625 9.289062 -4.375 6.09375 C -3.695312 2.90625 -2.929688 -0.640625 -2.078125 -4.546875 C -1.234375 -8.453125 -0.335938 -12.46875 0.609375 -16.59375 C 1.566406 -20.71875 2.492188 -24.757812 3.390625 -28.71875 C 4.296875 -32.675781 5.132812 -36.320312 5.90625 -39.65625 C 5.957031 -39.769531 5.984375 -39.90625 5.984375 -40.0625 C 6.960938 -44.164062 7.726562 -47.363281 8.28125 -49.65625 C 9.53125 -54.675781 10.921875 -59.25 12.453125 -63.375 C 13.984375 -67.5 15.5 -70.800781 17 -73.28125 C 18.5 -75.769531 19.851562 -77.15625 21.0625 -77.4375 C 21.9375 -77.59375 22.644531 -77.289062 23.1875 -76.53125 C 23.945312 -75.488281 23.875 -73.25 22.96875 -69.8125 C 22.070312 -66.375 20.421875 -62.003906 18.015625 -56.703125 C 15.617188 -51.398438 12.617188 -45.472656 9.015625 -38.921875 C 8.191406 -35.535156 7.316406 -31.832031 6.390625 -27.8125 C 5.460938 -23.800781 4.535156 -19.71875 3.609375 -15.5625 C 2.679688 -11.414062 1.804688 -7.457031 0.984375 -3.6875 C 1.585938 -5 2.226562 -6.296875 2.90625 -7.578125 C 3.59375 -8.859375 4.289062 -10.070312 5 -11.21875 C 8.113281 -16.03125 10.789062 -18.351562 13.03125 -18.1875 C 14.175781 -18.082031 14.96875 -17.484375 15.40625 -16.390625 C 15.945312 -15.242188 15.941406 -13.726562 15.390625 -11.84375 C 14.847656 -9.957031 13.925781 -8.140625 12.625 -6.390625 C 11.851562 -5.410156 11.03125 -4.507812 10.15625 -3.6875 C 9.28125 -2.863281 8.488281 -2.15625 7.78125 -1.5625 C 7.613281 -1.394531 7.4375 -1.226562 7.25 -1.0625 C 7.0625 -0.894531 6.910156 -0.757812 6.796875 -0.65625 C 7.015625 0.269531 7.34375 0.894531 7.78125 1.21875 C 8.21875 1.550781 8.601562 1.742188 8.9375 1.796875 C 10.132812 2.015625 11.726562 1.644531 13.71875 0.6875 C 15.71875 -0.257812 17.878906 -1.660156 20.203125 -3.515625 C 22.523438 -5.378906 24.832031 -7.550781 27.125 -10.03125 C 29.414062 -12.519531 31.410156 -15.15625 33.109375 -17.9375 C 33.328125 -18.320312 33.648438 -18.554688 34.078125 -18.640625 C 34.515625 -18.722656 34.925781 -18.65625 35.3125 -18.4375 Z M 20.40625 -72.84375 C 19.476562 -71.476562 18.234375 -69.0625 16.671875 -65.59375 C 15.117188 -62.125 13.578125 -57.410156 12.046875 -51.453125 C 14.773438 -56.972656 16.78125 -61.507812 18.0625 -65.0625 C 19.351562 -68.613281 20.132812 -71.207031 20.40625 -72.84375 Z M 20.40625 -72.84375 "/></g></g></g><g fill="#ffffff" fill-opacity="1"><g transform="translate(304.050211, 93.154496)"><g><path d="M 35.96875 -18.59375 C 36.351562 -18.375 36.625 -18.0625 36.78125 -17.65625 C 36.945312 -17.25 36.921875 -16.851562 36.703125 -16.46875 C 35.671875 -14.226562 34.398438 -11.710938 32.890625 -8.921875 C 31.390625 -6.140625 29.789062 -3.34375 28.09375 -0.53125 C 26.40625 2.28125 24.6875 4.847656 22.9375 7.171875 C 21.195312 9.492188 19.503906 11.378906 17.859375 12.828125 C 16.222656 14.273438 14.75 15 13.4375 15 C 13.050781 15 12.695312 14.914062 12.375 14.75 C 11.226562 14.3125 10.476562 13.269531 10.125 11.625 C 9.769531 9.988281 9.8125 7.644531 10.25 4.59375 C 11.007812 -0.925781 13.03125 -8.738281 16.3125 -18.84375 C 16.25 -18.84375 16.203125 -18.828125 16.171875 -18.796875 C 16.148438 -18.773438 16.113281 -18.765625 16.0625 -18.765625 C 14.96875 -17.992188 13.65625 -17.195312 12.125 -16.375 C 10.59375 -15.5625 9.007812 -15.019531 7.375 -14.75 C 5.738281 -14.476562 4.179688 -14.832031 2.703125 -15.8125 C 0.628906 -17.289062 -0.429688 -19.335938 -0.484375 -21.953125 C -0.546875 -24.578125 0.429688 -27.445312 2.453125 -30.5625 C 3.109375 -31.539062 3.96875 -32.628906 5.03125 -33.828125 C 6.101562 -35.035156 7.222656 -35.96875 8.390625 -36.625 C 9.566406 -37.28125 10.617188 -37.304688 11.546875 -36.703125 C 12.046875 -36.429688 12.414062 -35.96875 12.65625 -35.3125 C 12.90625 -34.65625 12.890625 -33.644531 12.609375 -32.28125 C 12.335938 -30.914062 11.679688 -29.085938 10.640625 -26.796875 C 9.609375 -24.503906 8.054688 -21.523438 5.984375 -17.859375 C 7.234375 -17.691406 8.632812 -18.046875 10.1875 -18.921875 C 11.75 -19.796875 13.132812 -20.617188 14.34375 -21.390625 C 15.488281 -22.148438 16.441406 -22.707031 17.203125 -23.0625 C 17.972656 -23.414062 18.6875 -23.347656 19.34375 -22.859375 C 19.9375 -22.367188 20.175781 -21.769531 20.0625 -21.0625 C 19.957031 -20.351562 19.851562 -19.804688 19.75 -19.421875 C 17.945312 -13.734375 16.550781 -9.003906 15.5625 -5.234375 C 14.582031 -1.472656 13.914062 1.550781 13.5625 3.84375 C 13.207031 6.144531 13.03125 7.867188 13.03125 9.015625 C 13.03125 10.160156 13.109375 10.910156 13.265625 11.265625 C 13.429688 11.617188 13.515625 11.820312 13.515625 11.875 C 14.171875 11.988281 15.519531 10.9375 17.5625 8.71875 C 19.613281 6.507812 22.0625 3.179688 24.90625 -1.265625 C 27.75 -5.722656 30.726562 -11.226562 33.84375 -17.78125 C 34.0625 -18.21875 34.375 -18.503906 34.78125 -18.640625 C 35.1875 -18.773438 35.582031 -18.757812 35.96875 -18.59375 Z M 2.953125 -24.171875 C 2.617188 -23.023438 2.519531 -22.082031 2.65625 -21.34375 C 2.800781 -20.601562 3.007812 -20.015625 3.28125 -19.578125 C 5.03125 -22.640625 6.351562 -25.125 7.25 -27.03125 C 8.15625 -28.945312 8.769531 -30.421875 9.09375 -31.453125 C 9.425781 -32.492188 9.617188 -33.234375 9.671875 -33.671875 C 9.066406 -33.347656 8.3125 -32.722656 7.40625 -31.796875 C 6.507812 -30.867188 5.632812 -29.75 4.78125 -28.4375 C 3.9375 -27.125 3.328125 -25.703125 2.953125 -24.171875 Z M 2.953125 -24.171875 "/></g></g></g><g fill="#ffffff" fill-opacity="1"><g transform="translate(336.745689, 93.154496)"><g><path d="M 34.328125 -18.1875 C 34.710938 -18.019531 34.972656 -17.734375 35.109375 -17.328125 C 35.242188 -16.921875 35.226562 -16.523438 35.0625 -16.140625 C 34.03125 -14.015625 32.898438 -11.882812 31.671875 -9.75 C 30.441406 -7.625 29.15625 -5.671875 27.8125 -3.890625 C 26.476562 -2.117188 25.097656 -0.703125 23.671875 0.359375 C 22.253906 1.429688 20.835938 1.96875 19.421875 1.96875 C 19.148438 1.96875 18.847656 1.941406 18.515625 1.890625 C 14.859375 1.171875 12.59375 -3.742188 11.71875 -12.859375 C 10.789062 -11.609375 9.710938 -10.203125 8.484375 -8.640625 C 7.253906 -7.085938 5.957031 -5.546875 4.59375 -4.015625 C 4.375 -3.796875 4.015625 -3.453125 3.515625 -2.984375 C 3.023438 -2.523438 2.453125 -2.15625 1.796875 -1.875 C 1.140625 -1.601562 0.488281 -1.632812 -0.15625 -1.96875 C -1.46875 -2.457031 -2.097656 -3.878906 -2.046875 -6.234375 C -2.046875 -7.597656 -1.785156 -9.289062 -1.265625 -11.3125 C -0.742188 -13.332031 -0.0078125 -15.363281 0.9375 -17.40625 C 1.894531 -19.457031 3.015625 -21.273438 4.296875 -22.859375 C 5.585938 -24.441406 7.023438 -25.507812 8.609375 -26.0625 C 9.585938 -26.4375 10.785156 -26.5 12.203125 -26.25 C 13.628906 -26.007812 15.109375 -24.988281 16.640625 -23.1875 C 16.910156 -22.863281 17.03125 -22.484375 17 -22.046875 C 16.976562 -21.609375 16.800781 -21.25 16.46875 -20.96875 C 16.144531 -20.695312 15.765625 -20.570312 15.328125 -20.59375 C 14.890625 -20.625 14.53125 -20.804688 14.25 -21.140625 C 12.945312 -22.671875 11.816406 -23.394531 10.859375 -23.3125 C 9.898438 -23.226562 9.09375 -22.941406 8.4375 -22.453125 C 7.238281 -21.578125 6.144531 -20.316406 5.15625 -18.671875 C 4.175781 -17.035156 3.359375 -15.316406 2.703125 -13.515625 C 2.046875 -11.710938 1.582031 -10.03125 1.3125 -8.46875 C 1.039062 -6.914062 0.957031 -5.785156 1.0625 -5.078125 C 1.226562 -5.191406 1.40625 -5.328125 1.59375 -5.484375 C 1.789062 -5.648438 2 -5.867188 2.21875 -6.140625 C 3.851562 -7.941406 5.351562 -9.726562 6.71875 -11.5 C 8.082031 -13.28125 9.257812 -14.851562 10.25 -16.21875 C 10.519531 -16.601562 10.773438 -16.972656 11.015625 -17.328125 C 11.265625 -17.679688 11.5 -17.992188 11.71875 -18.265625 C 12.15625 -18.816406 12.726562 -18.984375 13.4375 -18.765625 C 14.144531 -18.597656 14.523438 -18.132812 14.578125 -17.375 C 14.742188 -13.820312 15.03125 -10.96875 15.4375 -8.8125 C 15.851562 -6.65625 16.304688 -5.039062 16.796875 -3.96875 C 17.285156 -2.90625 17.75 -2.179688 18.1875 -1.796875 C 18.625 -1.421875 18.953125 -1.234375 19.171875 -1.234375 C 20.210938 -1.015625 21.878906 -2.078125 24.171875 -4.421875 C 26.460938 -6.773438 29.140625 -11.117188 32.203125 -17.453125 C 32.421875 -17.890625 32.734375 -18.175781 33.140625 -18.3125 C 33.554688 -18.445312 33.953125 -18.40625 34.328125 -18.1875 Z M 34.328125 -18.1875 "/></g></g></g></svg>